<svg xmlns="http://www.w3.org/2000/svg" xmlns:xlink="http://www.w3.org/1999/xlink" width="500" zoomAndPan="magnify" viewBox="0 0 375 374.999991" height="500" preserveAspectRatio="xMidYMid meet" version="1.0"><defs><clipPath id="6ace64c86a"><path d="M 37.5 149.921875 L 337.535156 149.921875 L 337.535156 225.074219 L 37.5 225.074219 Z M 37.5 149.921875 " clip-rule="nonzero"/></clipPath><clipPath id="99f22869b9"><path d="M 337.5 149.921875 L 337.5 225.074219 C 333.96875 213.488281 324.703125 206.289062 291.171875 206.289062 L 83.824219 206.289062 C 50.292969 206.289062 41.027344 213.488281 37.5 225.074219 L 37.5 149.921875 C 41.027344 161.507812 50.292969 168.714844 83.824219 168.714844 L 291.179688 168.714844 C 324.710938 168.714844 333.96875 161.507812 337.5 149.921875 Z M 337.5 149.921875 " clip-rule="nonzero"/></clipPath><clipPath id="eb093e52b3"><path d="M 37.5 47.25 L 337.535156 47.25 L 337.535156 122.402344 L 37.5 122.402344 Z M 37.5 47.25 " clip-rule="nonzero"/></clipPath><clipPath id="129fa6f7d4"><path d="M 337.5 47.25 L 337.5 122.402344 C 333.96875 110.816406 324.703125 103.617188 291.171875 103.617188 L 83.824219 103.617188 C 50.292969 103.617188 41.027344 110.816406 37.5 122.402344 L 37.5 47.25 C 41.027344 58.835938 50.292969 66.042969 83.824219 66.042969 L 291.179688 66.042969 C 324.710938 66.042969 333.96875 58.835938 337.5 47.25 Z M 337.5 47.25 " clip-rule="nonzero"/></clipPath><clipPath id="29bf348033"><path d="M 37.5 252.828125 L 337.535156 252.828125 L 337.535156 327.980469 L 37.5 327.980469 Z M 37.5 252.828125 " clip-rule="nonzero"/></clipPath><clipPath id="51fda2902c"><path d="M 337.5 252.828125 L 337.5 327.980469 C 333.96875 316.394531 324.703125 309.195312 291.171875 309.195312 L 83.824219 309.195312 C 50.292969 309.195312 41.027344 316.394531 37.5 327.980469 L 37.5 252.828125 C 41.027344 264.414062 50.292969 271.621094 83.824219 271.621094 L 291.179688 271.621094 C 324.710938 271.621094 333.96875 264.414062 337.5 252.828125 Z M 337.5 252.828125 " clip-rule="nonzero"/></clipPath></defs><rect x="-37.5" width="450" fill="#ffffff" y="-37.499999" height="449.999989" fill-opacity="1"/><rect x="-37.5" width="450" fill="#ffffff" y="-37.499999" height="449.999989" fill-opacity="1"/><g clip-path="url(#6ace64c86a)"><g clip-path="url(#99f22869b9)"><path fill="#000000" d="M 37.5 225.074219 L 37.5 149.921875 L 337.535156 149.921875 L 337.535156 225.074219 Z M 37.5 225.074219 " fill-opacity="1" fill-rule="nonzero"/></g></g><g clip-path="url(#eb093e52b3)"><g clip-path="url(#129fa6f7d4)"><path fill="#000000" d="M 37.5 122.402344 L 37.5 47.25 L 337.535156 47.25 L 337.535156 122.402344 Z M 37.5 122.402344 " fill-opacity="1" fill-rule="nonzero"/></g></g><g clip-path="url(#29bf348033)"><g clip-path="url(#51fda2902c)"><path fill="#000000" d="M 37.5 327.980469 L 37.5 252.828125 L 337.535156 252.828125 L 337.535156 327.980469 Z M 37.5 327.980469 " fill-opacity="1" fill-rule="nonzero"/></g></g></svg>