<svg xmlns="http://www.w3.org/2000/svg" xmlns:xlink="http://www.w3.org/1999/xlink" width="500" zoomAndPan="magnify" viewBox="0 0 375 374.999991" height="500" preserveAspectRatio="xMidYMid meet" version="1.0"><defs><g/><clipPath id="55af85afc5"><path d="M 2.679688 2.679688 L 99.429688 2.679688 L 99.429688 99.429688 L 2.679688 99.429688 Z M 2.679688 2.679688 " clip-rule="nonzero"/></clipPath><clipPath id="076aeaef85"><path d="M 275.679688 2.679688 L 372.429688 2.679688 L 372.429688 99.429688 L 275.679688 99.429688 Z M 275.679688 2.679688 " clip-rule="nonzero"/></clipPath><clipPath id="adfa7f637d"><path d="M 2.679688 275.679688 L 99.429688 275.679688 L 99.429688 372.429688 L 2.679688 372.429688 Z M 2.679688 275.679688 " clip-rule="nonzero"/></clipPath><clipPath id="613befa6a3"><path d="M 275.679688 275.679688 L 372.429688 275.679688 L 372.429688 372.429688 L 275.679688 372.429688 Z M 275.679688 275.679688 " clip-rule="nonzero"/></clipPath><clipPath id="fde3274d7a"><path d="M 2.679688 139.179688 L 99.429688 139.179688 L 99.429688 235.929688 L 2.679688 235.929688 Z M 2.679688 139.179688 " clip-rule="nonzero"/></clipPath><clipPath id="f5e751ca39"><path d="M 0 136.5 L 102 136.5 L 102 238.5 L 0 238.5 Z M 0 136.5 " clip-rule="nonzero"/></clipPath><clipPath id="77dd478847"><path d="M 275.679688 139.179688 L 372.429688 139.179688 L 372.429688 235.929688 L 275.679688 235.929688 Z M 275.679688 139.179688 " clip-rule="nonzero"/></clipPath><clipPath id="317779c237"><path d="M 273 136.5 L 375 136.5 L 375 238.5 L 273 238.5 Z M 273 136.5 " clip-rule="nonzero"/></clipPath><clipPath id="2aa7a7dad8"><path d="M 137.839844 139.179688 L 234.589844 139.179688 L 234.589844 235.929688 L 137.839844 235.929688 Z M 137.839844 139.179688 " clip-rule="nonzero"/></clipPath><clipPath id="e95ff7ccc1"><path d="M 135.160156 136.5 L 237.160156 136.5 L 237.160156 238.5 L 135.160156 238.5 Z M 135.160156 136.5 " clip-rule="nonzero"/></clipPath><clipPath id="632947dea0"><path d="M 139.179688 2.679688 L 235.929688 2.679688 L 235.929688 99.429688 L 139.179688 99.429688 Z M 139.179688 2.679688 " clip-rule="nonzero"/></clipPath><clipPath id="6a469aa861"><path d="M 136.5 0 L 238.5 0 L 238.5 102 L 136.5 102 Z M 136.5 0 " clip-rule="nonzero"/></clipPath><clipPath id="b9cde93399"><path d="M 137.839844 275.679688 L 234.589844 275.679688 L 234.589844 372.429688 L 137.839844 372.429688 Z M 137.839844 275.679688 " clip-rule="nonzero"/></clipPath><clipPath id="677efeaea3"><path d="M 135.160156 273 L 237.160156 273 L 237.160156 375 L 135.160156 375 Z M 135.160156 273 " clip-rule="nonzero"/></clipPath></defs><path stroke-linecap="butt" transform="matrix(0.75, 0, 0, 0.75, 100.959571, 47.999997)" fill="none" stroke-linejoin="miter" d="M 0.00182137 4.000004 L 49.1737 4.000004 " stroke="#000000" stroke-width="8" stroke-opacity="1" stroke-miterlimit="4"/><path stroke-linecap="butt" transform="matrix(0.539558, 0.520939, -0.520939, 0.539558, 225.824697, 81.329102)" fill="none" stroke-linejoin="miter" d="M 0.00207095 3.999756 L 127.046728 4.001865 " stroke="#000000" stroke-width="8" stroke-opacity="1" stroke-miterlimit="4"/><path stroke-linecap="butt" transform="matrix(0.75, 0, 0, 0.75, 100.369846, 184.499988)" fill="none" stroke-linejoin="miter" d="M 0.00166379 4.000016 L 49.173542 4.000016 " stroke="#000000" stroke-width="8" stroke-opacity="1" stroke-miterlimit="4"/><path stroke-linecap="butt" transform="matrix(0.53033, -0.53033, 0.53033, 0.53033, 81.776637, 286.202148)" fill="none" stroke-linejoin="miter" d="M -0.000254157 4.00116 L 127.043272 4.00116 " stroke="#000000" stroke-width="8" stroke-opacity="1" stroke-miterlimit="4"/><path stroke-linecap="butt" transform="matrix(0.75, 0, 0, 0.75, 100.369846, 323.088173)" fill="none" stroke-linejoin="miter" d="M 0.00166379 4.002228 L 49.173542 4.002228 " stroke="#000000" stroke-width="8" stroke-opacity="1" stroke-miterlimit="4"/><path stroke-linecap="butt" transform="matrix(0.75, 0, 0, 0.75, 236.119823, 323.088173)" fill="none" stroke-linejoin="miter" d="M 0.00169487 4.002228 L 49.173573 4.002228 " stroke="#000000" stroke-width="8" stroke-opacity="1" stroke-miterlimit="4"/><g clip-path="url(#55af85afc5)"><path fill="#ffffff" d="M 99.429688 51.054688 C 99.429688 52.640625 99.351562 54.21875 99.195312 55.796875 C 99.042969 57.371094 98.808594 58.9375 98.5 60.492188 C 98.191406 62.046875 97.804688 63.582031 97.347656 65.097656 C 96.886719 66.613281 96.351562 68.101562 95.746094 69.566406 C 95.140625 71.03125 94.464844 72.460938 93.71875 73.859375 C 92.96875 75.253906 92.15625 76.613281 91.277344 77.929688 C 90.398438 79.246094 89.453125 80.519531 88.449219 81.742188 C 87.445312 82.96875 86.382812 84.140625 85.261719 85.261719 C 84.140625 86.382812 82.96875 87.445312 81.742188 88.449219 C 80.519531 89.453125 79.246094 90.398438 77.929688 91.277344 C 76.613281 92.15625 75.253906 92.96875 73.859375 93.71875 C 72.460938 94.464844 71.03125 95.140625 69.566406 95.746094 C 68.101562 96.351562 66.613281 96.886719 65.097656 97.347656 C 63.582031 97.804688 62.046875 98.191406 60.492188 98.5 C 58.9375 98.808594 57.371094 99.042969 55.796875 99.195312 C 54.21875 99.351562 52.640625 99.429688 51.054688 99.429688 C 49.46875 99.429688 47.890625 99.351562 46.3125 99.195312 C 44.734375 99.042969 43.171875 98.808594 41.617188 98.5 C 40.0625 98.191406 38.527344 97.804688 37.011719 97.347656 C 35.496094 96.886719 34.007812 96.351562 32.542969 95.746094 C 31.078125 95.140625 29.648438 94.464844 28.25 93.71875 C 26.851562 92.96875 25.496094 92.15625 24.179688 91.277344 C 22.863281 90.398438 21.589844 89.453125 20.367188 88.449219 C 19.140625 87.445312 17.96875 86.382812 16.847656 85.261719 C 15.726562 84.140625 14.664062 82.96875 13.660156 81.742188 C 12.65625 80.519531 11.710938 79.246094 10.832031 77.929688 C 9.953125 76.613281 9.136719 75.253906 8.390625 73.859375 C 7.644531 72.460938 6.96875 71.03125 6.363281 69.566406 C 5.753906 68.101562 5.222656 66.613281 4.761719 65.097656 C 4.300781 63.582031 3.917969 62.046875 3.609375 60.492188 C 3.300781 58.9375 3.066406 57.371094 2.914062 55.796875 C 2.757812 54.21875 2.679688 52.640625 2.679688 51.054688 C 2.679688 49.46875 2.757812 47.890625 2.914062 46.3125 C 3.066406 44.734375 3.300781 43.171875 3.609375 41.617188 C 3.917969 40.0625 4.300781 38.527344 4.761719 37.011719 C 5.222656 35.496094 5.753906 34.007812 6.363281 32.542969 C 6.96875 31.078125 7.644531 29.648438 8.390625 28.25 C 9.136719 26.851562 9.953125 25.496094 10.832031 24.179688 C 11.710938 22.863281 12.65625 21.589844 13.660156 20.367188 C 14.664062 19.140625 15.726562 17.96875 16.847656 16.847656 C 17.96875 15.726562 19.140625 14.664062 20.367188 13.660156 C 21.589844 12.65625 22.863281 11.710938 24.179688 10.832031 C 25.496094 9.953125 26.851562 9.136719 28.25 8.390625 C 29.648438 7.644531 31.078125 6.96875 32.542969 6.363281 C 34.007812 5.753906 35.496094 5.222656 37.011719 4.761719 C 38.527344 4.300781 40.0625 3.917969 41.617188 3.609375 C 43.171875 3.300781 44.734375 3.066406 46.3125 2.914062 C 47.890625 2.757812 49.46875 2.679688 51.054688 2.679688 C 52.640625 2.679688 54.21875 2.757812 55.796875 2.914062 C 57.371094 3.066406 58.9375 3.300781 60.492188 3.609375 C 62.046875 3.917969 63.582031 4.300781 65.097656 4.761719 C 66.613281 5.222656 68.101562 5.753906 69.566406 6.363281 C 71.03125 6.96875 72.460938 7.644531 73.859375 8.390625 C 75.253906 9.136719 76.613281 9.953125 77.929688 10.832031 C 79.246094 11.710938 80.519531 12.65625 81.742188 13.660156 C 82.96875 14.664062 84.140625 15.726562 85.261719 16.847656 C 86.382812 17.96875 87.445312 19.140625 88.449219 20.367188 C 89.453125 21.589844 90.398438 22.863281 91.277344 24.179688 C 92.15625 25.496094 92.96875 26.851562 93.71875 28.25 C 94.464844 29.648438 95.140625 31.078125 95.746094 32.542969 C 96.351562 34.007812 96.886719 35.496094 97.347656 37.011719 C 97.804688 38.527344 98.191406 40.0625 98.5 41.617188 C 98.808594 43.171875 99.042969 44.734375 99.195312 46.3125 C 99.351562 47.890625 99.429688 49.46875 99.429688 51.054688 Z M 99.429688 51.054688 " fill-opacity="1" fill-rule="nonzero"/></g><path fill="#000000" d="M 51 102 C 22.824219 102 0 79.019531 0 51 C 0 22.980469 22.824219 0 51 0 C 79.175781 0 102 22.824219 102 51 C 102 79.175781 79.019531 102 51 102 Z M 51 3.148438 C 24.554688 3.148438 3.148438 24.554688 3.148438 51 C 3.148438 77.445312 24.554688 98.851562 51 98.851562 C 77.445312 98.851562 98.851562 77.445312 98.851562 51 C 98.851562 24.554688 77.285156 3.148438 51 3.148438 Z M 51 3.148438 " fill-opacity="1" fill-rule="nonzero"/><g clip-path="url(#076aeaef85)"><path fill="#ffffff" d="M 372.429688 51.054688 C 372.429688 52.640625 372.351562 54.21875 372.195312 55.796875 C 372.042969 57.371094 371.808594 58.9375 371.5 60.492188 C 371.191406 62.046875 370.804688 63.582031 370.347656 65.097656 C 369.886719 66.613281 369.351562 68.101562 368.746094 69.566406 C 368.140625 71.03125 367.464844 72.460938 366.71875 73.859375 C 365.96875 75.253906 365.15625 76.613281 364.277344 77.929688 C 363.398438 79.246094 362.453125 80.519531 361.449219 81.742188 C 360.445312 82.96875 359.382812 84.140625 358.261719 85.261719 C 357.140625 86.382812 355.96875 87.445312 354.742188 88.449219 C 353.519531 89.453125 352.246094 90.398438 350.929688 91.277344 C 349.613281 92.15625 348.253906 92.96875 346.859375 93.71875 C 345.460938 94.464844 344.03125 95.140625 342.566406 95.746094 C 341.101562 96.351562 339.613281 96.886719 338.097656 97.347656 C 336.582031 97.804688 335.046875 98.191406 333.492188 98.5 C 331.9375 98.808594 330.371094 99.042969 328.796875 99.195312 C 327.21875 99.351562 325.640625 99.429688 324.054688 99.429688 C 322.46875 99.429688 320.890625 99.351562 319.3125 99.195312 C 317.734375 99.042969 316.171875 98.808594 314.617188 98.5 C 313.0625 98.191406 311.527344 97.804688 310.011719 97.347656 C 308.496094 96.886719 307.007812 96.351562 305.542969 95.746094 C 304.078125 95.140625 302.648438 94.464844 301.25 93.71875 C 299.851562 92.96875 298.496094 92.15625 297.179688 91.277344 C 295.863281 90.398438 294.589844 89.453125 293.367188 88.449219 C 292.140625 87.445312 290.96875 86.382812 289.847656 85.261719 C 288.726562 84.140625 287.664062 82.96875 286.660156 81.742188 C 285.65625 80.519531 284.710938 79.246094 283.832031 77.929688 C 282.953125 76.613281 282.136719 75.253906 281.390625 73.859375 C 280.644531 72.460938 279.96875 71.03125 279.363281 69.566406 C 278.753906 68.101562 278.222656 66.613281 277.761719 65.097656 C 277.300781 63.582031 276.917969 62.046875 276.609375 60.492188 C 276.300781 58.9375 276.066406 57.371094 275.914062 55.796875 C 275.757812 54.21875 275.679688 52.640625 275.679688 51.054688 C 275.679688 49.46875 275.757812 47.890625 275.914062 46.3125 C 276.066406 44.734375 276.300781 43.171875 276.609375 41.617188 C 276.917969 40.0625 277.300781 38.527344 277.761719 37.011719 C 278.222656 35.496094 278.753906 34.007812 279.363281 32.542969 C 279.96875 31.078125 280.644531 29.648438 281.390625 28.25 C 282.136719 26.851562 282.953125 25.496094 283.832031 24.179688 C 284.710938 22.863281 285.65625 21.589844 286.660156 20.367188 C 287.664062 19.140625 288.726562 17.96875 289.847656 16.847656 C 290.96875 15.726562 292.140625 14.664062 293.367188 13.660156 C 294.589844 12.65625 295.863281 11.710938 297.179688 10.832031 C 298.496094 9.953125 299.851562 9.136719 301.25 8.390625 C 302.648438 7.644531 304.078125 6.96875 305.542969 6.363281 C 307.007812 5.753906 308.496094 5.222656 310.011719 4.761719 C 311.527344 4.300781 313.0625 3.917969 314.617188 3.609375 C 316.171875 3.300781 317.734375 3.066406 319.3125 2.914062 C 320.890625 2.757812 322.46875 2.679688 324.054688 2.679688 C 325.640625 2.679688 327.21875 2.757812 328.796875 2.914062 C 330.371094 3.066406 331.9375 3.300781 333.492188 3.609375 C 335.046875 3.917969 336.582031 4.300781 338.097656 4.761719 C 339.613281 5.222656 341.101562 5.753906 342.566406 6.363281 C 344.03125 6.96875 345.460938 7.644531 346.859375 8.390625 C 348.253906 9.136719 349.613281 9.953125 350.929688 10.832031 C 352.246094 11.710938 353.519531 12.65625 354.742188 13.660156 C 355.96875 14.664062 357.140625 15.726562 358.261719 16.847656 C 359.382812 17.96875 360.445312 19.140625 361.449219 20.367188 C 362.453125 21.589844 363.398438 22.863281 364.277344 24.179688 C 365.15625 25.496094 365.96875 26.851562 366.71875 28.25 C 367.464844 29.648438 368.140625 31.078125 368.746094 32.542969 C 369.351562 34.007812 369.886719 35.496094 370.347656 37.011719 C 370.804688 38.527344 371.191406 40.0625 371.5 41.617188 C 371.808594 43.171875 372.042969 44.734375 372.195312 46.3125 C 372.351562 47.890625 372.429688 49.46875 372.429688 51.054688 Z M 372.429688 51.054688 " fill-opacity="1" fill-rule="nonzero"/></g><path fill="#000000" d="M 324 102 C 295.824219 102 273 79.019531 273 51 C 273 22.980469 295.824219 0 324 0 C 352.175781 0 375 22.824219 375 51 C 375 79.175781 352.019531 102 324 102 Z M 324 3.148438 C 297.554688 3.148438 276.148438 24.554688 276.148438 51 C 276.148438 77.445312 297.554688 98.851562 324 98.851562 C 350.445312 98.851562 371.851562 77.445312 371.851562 51 C 371.851562 24.554688 350.285156 3.148438 324 3.148438 Z M 324 3.148438 " fill-opacity="1" fill-rule="nonzero"/><g clip-path="url(#adfa7f637d)"><path fill="#ffffff" d="M 99.429688 324.054688 C 99.429688 325.640625 99.351562 327.21875 99.195312 328.796875 C 99.042969 330.371094 98.808594 331.9375 98.5 333.492188 C 98.191406 335.046875 97.804688 336.582031 97.347656 338.097656 C 96.886719 339.613281 96.351562 341.101562 95.746094 342.566406 C 95.140625 344.03125 94.464844 345.460938 93.71875 346.859375 C 92.96875 348.253906 92.15625 349.613281 91.277344 350.929688 C 90.398438 352.246094 89.453125 353.519531 88.449219 354.742188 C 87.445312 355.96875 86.382812 357.140625 85.261719 358.261719 C 84.140625 359.382812 82.96875 360.445312 81.742188 361.449219 C 80.519531 362.453125 79.246094 363.398438 77.929688 364.277344 C 76.613281 365.15625 75.253906 365.96875 73.859375 366.71875 C 72.460938 367.464844 71.03125 368.140625 69.566406 368.746094 C 68.101562 369.351562 66.613281 369.886719 65.097656 370.347656 C 63.582031 370.804688 62.046875 371.191406 60.492188 371.5 C 58.9375 371.808594 57.371094 372.042969 55.796875 372.195312 C 54.21875 372.351562 52.640625 372.429688 51.054688 372.429688 C 49.46875 372.429688 47.890625 372.351562 46.3125 372.195312 C 44.734375 372.042969 43.171875 371.808594 41.617188 371.5 C 40.0625 371.191406 38.527344 370.804688 37.011719 370.347656 C 35.496094 369.886719 34.007812 369.351562 32.542969 368.746094 C 31.078125 368.140625 29.648438 367.464844 28.25 366.71875 C 26.851562 365.96875 25.496094 365.15625 24.179688 364.277344 C 22.863281 363.398438 21.589844 362.453125 20.367188 361.449219 C 19.140625 360.445312 17.96875 359.382812 16.847656 358.261719 C 15.726562 357.140625 14.664062 355.96875 13.660156 354.742188 C 12.65625 353.519531 11.710938 352.246094 10.832031 350.929688 C 9.953125 349.613281 9.136719 348.253906 8.390625 346.859375 C 7.644531 345.460938 6.96875 344.03125 6.363281 342.566406 C 5.753906 341.101562 5.222656 339.613281 4.761719 338.097656 C 4.300781 336.582031 3.917969 335.046875 3.609375 333.492188 C 3.300781 331.9375 3.066406 330.371094 2.914062 328.796875 C 2.757812 327.21875 2.679688 325.640625 2.679688 324.054688 C 2.679688 322.46875 2.757812 320.890625 2.914062 319.3125 C 3.066406 317.734375 3.300781 316.171875 3.609375 314.617188 C 3.917969 313.0625 4.300781 311.527344 4.761719 310.011719 C 5.222656 308.496094 5.753906 307.007812 6.363281 305.542969 C 6.96875 304.078125 7.644531 302.648438 8.390625 301.25 C 9.136719 299.851562 9.953125 298.496094 10.832031 297.179688 C 11.710938 295.863281 12.65625 294.589844 13.660156 293.367188 C 14.664062 292.140625 15.726562 290.96875 16.847656 289.847656 C 17.96875 288.726562 19.140625 287.664062 20.367188 286.660156 C 21.589844 285.65625 22.863281 284.710938 24.179688 283.832031 C 25.496094 282.953125 26.851562 282.136719 28.25 281.390625 C 29.648438 280.644531 31.078125 279.96875 32.542969 279.363281 C 34.007812 278.753906 35.496094 278.222656 37.011719 277.761719 C 38.527344 277.300781 40.0625 276.917969 41.617188 276.609375 C 43.171875 276.300781 44.734375 276.066406 46.3125 275.914062 C 47.890625 275.757812 49.46875 275.679688 51.054688 275.679688 C 52.640625 275.679688 54.21875 275.757812 55.796875 275.914062 C 57.371094 276.066406 58.9375 276.300781 60.492188 276.609375 C 62.046875 276.917969 63.582031 277.300781 65.097656 277.761719 C 66.613281 278.222656 68.101562 278.753906 69.566406 279.363281 C 71.03125 279.96875 72.460938 280.644531 73.859375 281.390625 C 75.253906 282.136719 76.613281 282.953125 77.929688 283.832031 C 79.246094 284.710938 80.519531 285.65625 81.742188 286.660156 C 82.96875 287.664062 84.140625 288.726562 85.261719 289.847656 C 86.382812 290.96875 87.445312 292.140625 88.449219 293.367188 C 89.453125 294.589844 90.398438 295.863281 91.277344 297.179688 C 92.15625 298.496094 92.96875 299.851562 93.71875 301.25 C 94.464844 302.648438 95.140625 304.078125 95.746094 305.542969 C 96.351562 307.007812 96.886719 308.496094 97.347656 310.011719 C 97.804688 311.527344 98.191406 313.0625 98.5 314.617188 C 98.808594 316.171875 99.042969 317.734375 99.195312 319.3125 C 99.351562 320.890625 99.429688 322.46875 99.429688 324.054688 Z M 99.429688 324.054688 " fill-opacity="1" fill-rule="nonzero"/></g><path fill="#000000" d="M 51 375 C 22.824219 375 0 352.019531 0 324 C 0 295.980469 22.824219 273 51 273 C 79.175781 273 102 295.824219 102 324 C 102 352.175781 79.019531 375 51 375 Z M 51 276.148438 C 24.554688 276.148438 3.148438 297.554688 3.148438 324 C 3.148438 350.445312 24.554688 371.851562 51 371.851562 C 77.445312 371.851562 98.851562 350.445312 98.851562 324 C 98.851562 297.554688 77.285156 276.148438 51 276.148438 Z M 51 276.148438 " fill-opacity="1" fill-rule="nonzero"/><g clip-path="url(#613befa6a3)"><path fill="#ffffff" d="M 372.429688 324.054688 C 372.429688 325.640625 372.351562 327.21875 372.195312 328.796875 C 372.042969 330.371094 371.808594 331.9375 371.5 333.492188 C 371.191406 335.046875 370.804688 336.582031 370.347656 338.097656 C 369.886719 339.613281 369.351562 341.101562 368.746094 342.566406 C 368.140625 344.03125 367.464844 345.460938 366.71875 346.859375 C 365.96875 348.253906 365.15625 349.613281 364.277344 350.929688 C 363.398438 352.246094 362.453125 353.519531 361.449219 354.742188 C 360.445312 355.96875 359.382812 357.140625 358.261719 358.261719 C 357.140625 359.382812 355.96875 360.445312 354.742188 361.449219 C 353.519531 362.453125 352.246094 363.398438 350.929688 364.277344 C 349.613281 365.15625 348.253906 365.96875 346.859375 366.71875 C 345.460938 367.464844 344.03125 368.140625 342.566406 368.746094 C 341.101562 369.351562 339.613281 369.886719 338.097656 370.347656 C 336.582031 370.804688 335.046875 371.191406 333.492188 371.5 C 331.9375 371.808594 330.371094 372.042969 328.796875 372.195312 C 327.21875 372.351562 325.640625 372.429688 324.054688 372.429688 C 322.46875 372.429688 320.890625 372.351562 319.3125 372.195312 C 317.734375 372.042969 316.171875 371.808594 314.617188 371.5 C 313.0625 371.191406 311.527344 370.804688 310.011719 370.347656 C 308.496094 369.886719 307.007812 369.351562 305.542969 368.746094 C 304.078125 368.140625 302.648438 367.464844 301.25 366.71875 C 299.851562 365.96875 298.496094 365.15625 297.179688 364.277344 C 295.863281 363.398438 294.589844 362.453125 293.367188 361.449219 C 292.140625 360.445312 290.96875 359.382812 289.847656 358.261719 C 288.726562 357.140625 287.664062 355.96875 286.660156 354.742188 C 285.65625 353.519531 284.710938 352.246094 283.832031 350.929688 C 282.953125 349.613281 282.136719 348.253906 281.390625 346.859375 C 280.644531 345.460938 279.96875 344.03125 279.363281 342.566406 C 278.753906 341.101562 278.222656 339.613281 277.761719 338.097656 C 277.300781 336.582031 276.917969 335.046875 276.609375 333.492188 C 276.300781 331.9375 276.066406 330.371094 275.914062 328.796875 C 275.757812 327.21875 275.679688 325.640625 275.679688 324.054688 C 275.679688 322.46875 275.757812 320.890625 275.914062 319.3125 C 276.066406 317.734375 276.300781 316.171875 276.609375 314.617188 C 276.917969 313.0625 277.300781 311.527344 277.761719 310.011719 C 278.222656 308.496094 278.753906 307.007812 279.363281 305.542969 C 279.96875 304.078125 280.644531 302.648438 281.390625 301.25 C 282.136719 299.851562 282.953125 298.496094 283.832031 297.179688 C 284.710938 295.863281 285.65625 294.589844 286.660156 293.367188 C 287.664062 292.140625 288.726562 290.96875 289.847656 289.847656 C 290.96875 288.726562 292.140625 287.664062 293.367188 286.660156 C 294.589844 285.65625 295.863281 284.710938 297.179688 283.832031 C 298.496094 282.953125 299.851562 282.136719 301.25 281.390625 C 302.648438 280.644531 304.078125 279.96875 305.542969 279.363281 C 307.007812 278.753906 308.496094 278.222656 310.011719 277.761719 C 311.527344 277.300781 313.0625 276.917969 314.617188 276.609375 C 316.171875 276.300781 317.734375 276.066406 319.3125 275.914062 C 320.890625 275.757812 322.46875 275.679688 324.054688 275.679688 C 325.640625 275.679688 327.21875 275.757812 328.796875 275.914062 C 330.371094 276.066406 331.9375 276.300781 333.492188 276.609375 C 335.046875 276.917969 336.582031 277.300781 338.097656 277.761719 C 339.613281 278.222656 341.101562 278.753906 342.566406 279.363281 C 344.03125 279.96875 345.460938 280.644531 346.859375 281.390625 C 348.253906 282.136719 349.613281 282.953125 350.929688 283.832031 C 352.246094 284.710938 353.519531 285.65625 354.742188 286.660156 C 355.96875 287.664062 357.140625 288.726562 358.261719 289.847656 C 359.382812 290.96875 360.445312 292.140625 361.449219 293.367188 C 362.453125 294.589844 363.398438 295.863281 364.277344 297.179688 C 365.15625 298.496094 365.96875 299.851562 366.71875 301.25 C 367.464844 302.648438 368.140625 304.078125 368.746094 305.542969 C 369.351562 307.007812 369.886719 308.496094 370.347656 310.011719 C 370.804688 311.527344 371.191406 313.0625 371.5 314.617188 C 371.808594 316.171875 372.042969 317.734375 372.195312 319.3125 C 372.351562 320.890625 372.429688 322.46875 372.429688 324.054688 Z M 372.429688 324.054688 " fill-opacity="1" fill-rule="nonzero"/></g><path fill="#000000" d="M 324 375 C 295.824219 375 273 352.019531 273 324 C 273 295.980469 295.824219 273 324 273 C 352.175781 273 375 295.824219 375 324 C 375 352.175781 352.019531 375 324 375 Z M 324 276.148438 C 297.554688 276.148438 276.148438 297.554688 276.148438 324 C 276.148438 350.445312 297.554688 371.851562 324 371.851562 C 350.445312 371.851562 371.851562 350.445312 371.851562 324 C 371.851562 297.554688 350.285156 276.148438 324 276.148438 Z M 324 276.148438 " fill-opacity="1" fill-rule="nonzero"/><g clip-path="url(#fde3274d7a)"><path fill="#ffffff" d="M 99.429688 187.554688 C 99.429688 189.140625 99.351562 190.71875 99.195312 192.296875 C 99.042969 193.871094 98.808594 195.4375 98.5 196.992188 C 98.191406 198.546875 97.804688 200.082031 97.347656 201.597656 C 96.886719 203.113281 96.351562 204.601562 95.746094 206.066406 C 95.140625 207.53125 94.464844 208.960938 93.71875 210.359375 C 92.96875 211.753906 92.15625 213.113281 91.277344 214.429688 C 90.398438 215.746094 89.453125 217.019531 88.449219 218.242188 C 87.445312 219.46875 86.382812 220.640625 85.261719 221.761719 C 84.140625 222.882812 82.96875 223.945312 81.742188 224.949219 C 80.519531 225.953125 79.246094 226.898438 77.929688 227.777344 C 76.613281 228.65625 75.253906 229.46875 73.859375 230.21875 C 72.460938 230.964844 71.03125 231.640625 69.566406 232.246094 C 68.101562 232.851562 66.613281 233.386719 65.097656 233.847656 C 63.582031 234.304688 62.046875 234.691406 60.492188 235 C 58.9375 235.308594 57.371094 235.542969 55.796875 235.695312 C 54.21875 235.851562 52.640625 235.929688 51.054688 235.929688 C 49.46875 235.929688 47.890625 235.851562 46.3125 235.695312 C 44.734375 235.542969 43.171875 235.308594 41.617188 235 C 40.0625 234.691406 38.527344 234.304688 37.011719 233.847656 C 35.496094 233.386719 34.007812 232.851562 32.542969 232.246094 C 31.078125 231.640625 29.648438 230.964844 28.25 230.21875 C 26.851562 229.46875 25.496094 228.65625 24.179688 227.777344 C 22.863281 226.898438 21.589844 225.953125 20.367188 224.949219 C 19.140625 223.945312 17.96875 222.882812 16.847656 221.761719 C 15.726562 220.640625 14.664062 219.46875 13.660156 218.242188 C 12.65625 217.019531 11.710938 215.746094 10.832031 214.429688 C 9.953125 213.113281 9.136719 211.753906 8.390625 210.359375 C 7.644531 208.960938 6.96875 207.53125 6.363281 206.066406 C 5.753906 204.601562 5.222656 203.113281 4.761719 201.597656 C 4.300781 200.082031 3.917969 198.546875 3.609375 196.992188 C 3.300781 195.4375 3.066406 193.871094 2.914062 192.296875 C 2.757812 190.71875 2.679688 189.140625 2.679688 187.554688 C 2.679688 185.96875 2.757812 184.390625 2.914062 182.8125 C 3.066406 181.234375 3.300781 179.671875 3.609375 178.117188 C 3.917969 176.5625 4.300781 175.027344 4.761719 173.511719 C 5.222656 171.996094 5.753906 170.507812 6.363281 169.042969 C 6.96875 167.578125 7.644531 166.148438 8.390625 164.75 C 9.136719 163.351562 9.953125 161.996094 10.832031 160.679688 C 11.710938 159.363281 12.65625 158.089844 13.660156 156.867188 C 14.664062 155.640625 15.726562 154.46875 16.847656 153.347656 C 17.96875 152.226562 19.140625 151.164062 20.367188 150.160156 C 21.589844 149.15625 22.863281 148.210938 24.179688 147.332031 C 25.496094 146.453125 26.851562 145.636719 28.25 144.890625 C 29.648438 144.144531 31.078125 143.46875 32.542969 142.863281 C 34.007812 142.253906 35.496094 141.722656 37.011719 141.261719 C 38.527344 140.800781 40.0625 140.417969 41.617188 140.109375 C 43.171875 139.800781 44.734375 139.566406 46.3125 139.414062 C 47.890625 139.257812 49.46875 139.179688 51.054688 139.179688 C 52.640625 139.179688 54.21875 139.257812 55.796875 139.414062 C 57.371094 139.566406 58.9375 139.800781 60.492188 140.109375 C 62.046875 140.417969 63.582031 140.800781 65.097656 141.261719 C 66.613281 141.722656 68.101562 142.253906 69.566406 142.863281 C 71.03125 143.46875 72.460938 144.144531 73.859375 144.890625 C 75.253906 145.636719 76.613281 146.453125 77.929688 147.332031 C 79.246094 148.210938 80.519531 149.15625 81.742188 150.160156 C 82.96875 151.164062 84.140625 152.226562 85.261719 153.347656 C 86.382812 154.46875 87.445312 155.640625 88.449219 156.867188 C 89.453125 158.089844 90.398438 159.363281 91.277344 160.679688 C 92.15625 161.996094 92.96875 163.351562 93.71875 164.75 C 94.464844 166.148438 95.140625 167.578125 95.746094 169.042969 C 96.351562 170.507812 96.886719 171.996094 97.347656 173.511719 C 97.804688 175.027344 98.191406 176.5625 98.5 178.117188 C 98.808594 179.671875 99.042969 181.234375 99.195312 182.8125 C 99.351562 184.390625 99.429688 185.96875 99.429688 187.554688 Z M 99.429688 187.554688 " fill-opacity="1" fill-rule="nonzero"/></g><g clip-path="url(#f5e751ca39)"><path fill="#000000" d="M 51 238.5 C 22.824219 238.5 0 215.519531 0 187.5 C 0 159.480469 22.824219 136.5 51 136.5 C 79.175781 136.5 102 159.324219 102 187.5 C 102 215.675781 79.019531 238.5 51 238.5 Z M 51 139.648438 C 24.554688 139.648438 3.148438 161.054688 3.148438 187.5 C 3.148438 213.945312 24.554688 235.351562 51 235.351562 C 77.445312 235.351562 98.851562 213.945312 98.851562 187.5 C 98.851562 161.054688 77.285156 139.648438 51 139.648438 Z M 51 139.648438 " fill-opacity="1" fill-rule="nonzero"/></g><g clip-path="url(#77dd478847)"><path fill="#ffffff" d="M 372.429688 187.554688 C 372.429688 189.140625 372.351562 190.71875 372.195312 192.296875 C 372.042969 193.871094 371.808594 195.4375 371.5 196.992188 C 371.191406 198.546875 370.804688 200.082031 370.347656 201.597656 C 369.886719 203.113281 369.351562 204.601562 368.746094 206.066406 C 368.140625 207.53125 367.464844 208.960938 366.71875 210.359375 C 365.96875 211.753906 365.15625 213.113281 364.277344 214.429688 C 363.398438 215.746094 362.453125 217.019531 361.449219 218.242188 C 360.445312 219.46875 359.382812 220.640625 358.261719 221.761719 C 357.140625 222.882812 355.96875 223.945312 354.742188 224.949219 C 353.519531 225.953125 352.246094 226.898438 350.929688 227.777344 C 349.613281 228.65625 348.253906 229.46875 346.859375 230.21875 C 345.460938 230.964844 344.03125 231.640625 342.566406 232.246094 C 341.101562 232.851562 339.613281 233.386719 338.097656 233.847656 C 336.582031 234.304688 335.046875 234.691406 333.492188 235 C 331.9375 235.308594 330.371094 235.542969 328.796875 235.695312 C 327.21875 235.851562 325.640625 235.929688 324.054688 235.929688 C 322.46875 235.929688 320.890625 235.851562 319.3125 235.695312 C 317.734375 235.542969 316.171875 235.308594 314.617188 235 C 313.0625 234.691406 311.527344 234.304688 310.011719 233.847656 C 308.496094 233.386719 307.007812 232.851562 305.542969 232.246094 C 304.078125 231.640625 302.648438 230.964844 301.25 230.21875 C 299.851562 229.46875 298.496094 228.65625 297.179688 227.777344 C 295.863281 226.898438 294.589844 225.953125 293.367188 224.949219 C 292.140625 223.945312 290.96875 222.882812 289.847656 221.761719 C 288.726562 220.640625 287.664062 219.46875 286.660156 218.242188 C 285.65625 217.019531 284.710938 215.746094 283.832031 214.429688 C 282.953125 213.113281 282.136719 211.753906 281.390625 210.359375 C 280.644531 208.960938 279.96875 207.53125 279.363281 206.066406 C 278.753906 204.601562 278.222656 203.113281 277.761719 201.597656 C 277.300781 200.082031 276.917969 198.546875 276.609375 196.992188 C 276.300781 195.4375 276.066406 193.871094 275.914062 192.296875 C 275.757812 190.71875 275.679688 189.140625 275.679688 187.554688 C 275.679688 185.96875 275.757812 184.390625 275.914062 182.8125 C 276.066406 181.234375 276.300781 179.671875 276.609375 178.117188 C 276.917969 176.5625 277.300781 175.027344 277.761719 173.511719 C 278.222656 171.996094 278.753906 170.507812 279.363281 169.042969 C 279.96875 167.578125 280.644531 166.148438 281.390625 164.75 C 282.136719 163.351562 282.953125 161.996094 283.832031 160.679688 C 284.710938 159.363281 285.65625 158.089844 286.660156 156.867188 C 287.664062 155.640625 288.726562 154.46875 289.847656 153.347656 C 290.96875 152.226562 292.140625 151.164062 293.367188 150.160156 C 294.589844 149.15625 295.863281 148.210938 297.179688 147.332031 C 298.496094 146.453125 299.851562 145.636719 301.25 144.890625 C 302.648438 144.144531 304.078125 143.46875 305.542969 142.863281 C 307.007812 142.253906 308.496094 141.722656 310.011719 141.261719 C 311.527344 140.800781 313.0625 140.417969 314.617188 140.109375 C 316.171875 139.800781 317.734375 139.566406 319.3125 139.414062 C 320.890625 139.257812 322.46875 139.179688 324.054688 139.179688 C 325.640625 139.179688 327.21875 139.257812 328.796875 139.414062 C 330.371094 139.566406 331.9375 139.800781 333.492188 140.109375 C 335.046875 140.417969 336.582031 140.800781 338.097656 141.261719 C 339.613281 141.722656 341.101562 142.253906 342.566406 142.863281 C 344.03125 143.46875 345.460938 144.144531 346.859375 144.890625 C 348.253906 145.636719 349.613281 146.453125 350.929688 147.332031 C 352.246094 148.210938 353.519531 149.15625 354.742188 150.160156 C 355.96875 151.164062 357.140625 152.226562 358.261719 153.347656 C 359.382812 154.46875 360.445312 155.640625 361.449219 156.867188 C 362.453125 158.089844 363.398438 159.363281 364.277344 160.679688 C 365.15625 161.996094 365.96875 163.351562 366.71875 164.75 C 367.464844 166.148438 368.140625 167.578125 368.746094 169.042969 C 369.351562 170.507812 369.886719 171.996094 370.347656 173.511719 C 370.804688 175.027344 371.191406 176.5625 371.5 178.117188 C 371.808594 179.671875 372.042969 181.234375 372.195312 182.8125 C 372.351562 184.390625 372.429688 185.96875 372.429688 187.554688 Z M 372.429688 187.554688 " fill-opacity="1" fill-rule="nonzero"/></g><g clip-path="url(#317779c237)"><path fill="#000000" d="M 324 238.5 C 295.824219 238.5 273 215.519531 273 187.5 C 273 159.480469 295.824219 136.5 324 136.5 C 352.175781 136.5 375 159.324219 375 187.5 C 375 215.675781 352.019531 238.5 324 238.5 Z M 324 139.648438 C 297.554688 139.648438 276.148438 161.054688 276.148438 187.5 C 276.148438 213.945312 297.554688 235.351562 324 235.351562 C 350.445312 235.351562 371.851562 213.945312 371.851562 187.5 C 371.851562 161.054688 350.285156 139.648438 324 139.648438 Z M 324 139.648438 " fill-opacity="1" fill-rule="nonzero"/></g><g clip-path="url(#2aa7a7dad8)"><path fill="#ffffff" d="M 234.589844 187.554688 C 234.589844 189.140625 234.511719 190.71875 234.355469 192.296875 C 234.203125 193.871094 233.96875 195.4375 233.660156 196.992188 C 233.351562 198.546875 232.964844 200.082031 232.507812 201.597656 C 232.046875 203.113281 231.515625 204.601562 230.90625 206.066406 C 230.300781 207.53125 229.625 208.960938 228.878906 210.359375 C 228.128906 211.753906 227.316406 213.113281 226.4375 214.429688 C 225.558594 215.746094 224.613281 217.019531 223.609375 218.242188 C 222.605469 219.46875 221.542969 220.640625 220.421875 221.761719 C 219.300781 222.882812 218.128906 223.945312 216.902344 224.949219 C 215.679688 225.953125 214.40625 226.898438 213.089844 227.777344 C 211.773438 228.65625 210.414062 229.46875 209.019531 230.21875 C 207.621094 230.964844 206.191406 231.640625 204.726562 232.246094 C 203.261719 232.851562 201.773438 233.386719 200.257812 233.847656 C 198.742188 234.304688 197.207031 234.691406 195.652344 235 C 194.097656 235.308594 192.53125 235.542969 190.957031 235.695312 C 189.378906 235.851562 187.800781 235.929688 186.214844 235.929688 C 184.628906 235.929688 183.050781 235.851562 181.472656 235.695312 C 179.894531 235.542969 178.332031 235.308594 176.777344 235 C 175.222656 234.691406 173.6875 234.304688 172.171875 233.847656 C 170.65625 233.386719 169.167969 232.851562 167.703125 232.246094 C 166.238281 231.640625 164.808594 230.964844 163.410156 230.21875 C 162.011719 229.46875 160.65625 228.65625 159.339844 227.777344 C 158.023438 226.898438 156.75 225.953125 155.527344 224.949219 C 154.300781 223.945312 153.128906 222.882812 152.007812 221.761719 C 150.886719 220.640625 149.824219 219.46875 148.820312 218.242188 C 147.816406 217.019531 146.871094 215.746094 145.992188 214.429688 C 145.113281 213.113281 144.296875 211.753906 143.550781 210.359375 C 142.804688 208.960938 142.128906 207.53125 141.523438 206.066406 C 140.914062 204.601562 140.382812 203.113281 139.921875 201.597656 C 139.460938 200.082031 139.078125 198.546875 138.769531 196.992188 C 138.460938 195.4375 138.226562 193.871094 138.074219 192.296875 C 137.917969 190.71875 137.839844 189.140625 137.839844 187.554688 C 137.839844 185.96875 137.917969 184.390625 138.074219 182.8125 C 138.226562 181.234375 138.460938 179.671875 138.769531 178.117188 C 139.078125 176.5625 139.460938 175.027344 139.921875 173.511719 C 140.382812 171.996094 140.914062 170.507812 141.523438 169.042969 C 142.128906 167.578125 142.804688 166.148438 143.550781 164.75 C 144.296875 163.351562 145.113281 161.996094 145.992188 160.679688 C 146.871094 159.363281 147.816406 158.089844 148.820312 156.867188 C 149.824219 155.640625 150.886719 154.46875 152.007812 153.347656 C 153.128906 152.226562 154.300781 151.164062 155.527344 150.160156 C 156.75 149.15625 158.023438 148.210938 159.339844 147.332031 C 160.65625 146.453125 162.011719 145.636719 163.410156 144.890625 C 164.808594 144.144531 166.238281 143.46875 167.703125 142.863281 C 169.167969 142.253906 170.65625 141.722656 172.171875 141.261719 C 173.6875 140.800781 175.222656 140.417969 176.777344 140.109375 C 178.332031 139.800781 179.894531 139.566406 181.472656 139.414062 C 183.050781 139.257812 184.628906 139.179688 186.214844 139.179688 C 187.800781 139.179688 189.378906 139.257812 190.957031 139.414062 C 192.53125 139.566406 194.097656 139.800781 195.652344 140.109375 C 197.207031 140.417969 198.742188 140.800781 200.257812 141.261719 C 201.773438 141.722656 203.261719 142.253906 204.726562 142.863281 C 206.191406 143.46875 207.621094 144.144531 209.019531 144.890625 C 210.414062 145.636719 211.773438 146.453125 213.089844 147.332031 C 214.40625 148.210938 215.679688 149.15625 216.902344 150.160156 C 218.128906 151.164062 219.300781 152.226562 220.421875 153.347656 C 221.542969 154.46875 222.605469 155.640625 223.609375 156.867188 C 224.613281 158.089844 225.558594 159.363281 226.4375 160.679688 C 227.316406 161.996094 228.128906 163.351562 228.878906 164.75 C 229.625 166.148438 230.300781 167.578125 230.90625 169.042969 C 231.515625 170.507812 232.046875 171.996094 232.507812 173.511719 C 232.964844 175.027344 233.351562 176.5625 233.660156 178.117188 C 233.96875 179.671875 234.203125 181.234375 234.355469 182.8125 C 234.511719 184.390625 234.589844 185.96875 234.589844 187.554688 Z M 234.589844 187.554688 " fill-opacity="1" fill-rule="nonzero"/></g><g clip-path="url(#e95ff7ccc1)"><path fill="#000000" d="M 186.160156 238.5 C 157.984375 238.5 135.160156 215.519531 135.160156 187.5 C 135.160156 159.480469 157.984375 136.5 186.160156 136.5 C 214.335938 136.5 237.160156 159.324219 237.160156 187.5 C 237.160156 215.675781 214.179688 238.5 186.160156 238.5 Z M 186.160156 139.648438 C 159.714844 139.648438 138.308594 161.054688 138.308594 187.5 C 138.308594 213.945312 159.714844 235.351562 186.160156 235.351562 C 212.605469 235.351562 234.011719 213.945312 234.011719 187.5 C 234.011719 161.054688 212.449219 139.648438 186.160156 139.648438 Z M 186.160156 139.648438 " fill-opacity="1" fill-rule="nonzero"/></g><g clip-path="url(#632947dea0)"><path fill="#ffffff" d="M 235.929688 51.054688 C 235.929688 52.640625 235.851562 54.21875 235.695312 55.796875 C 235.542969 57.371094 235.308594 58.9375 235 60.492188 C 234.691406 62.046875 234.304688 63.582031 233.847656 65.097656 C 233.386719 66.613281 232.851562 68.101562 232.246094 69.566406 C 231.640625 71.03125 230.964844 72.460938 230.21875 73.859375 C 229.46875 75.253906 228.65625 76.613281 227.777344 77.929688 C 226.898438 79.246094 225.953125 80.519531 224.949219 81.742188 C 223.945312 82.96875 222.882812 84.140625 221.761719 85.261719 C 220.640625 86.382812 219.46875 87.445312 218.242188 88.449219 C 217.019531 89.453125 215.746094 90.398438 214.429688 91.277344 C 213.113281 92.15625 211.753906 92.96875 210.359375 93.71875 C 208.960938 94.464844 207.53125 95.140625 206.066406 95.746094 C 204.601562 96.351562 203.113281 96.886719 201.597656 97.347656 C 200.082031 97.804688 198.546875 98.191406 196.992188 98.5 C 195.4375 98.808594 193.871094 99.042969 192.296875 99.195312 C 190.71875 99.351562 189.140625 99.429688 187.554688 99.429688 C 185.96875 99.429688 184.390625 99.351562 182.8125 99.195312 C 181.234375 99.042969 179.671875 98.808594 178.117188 98.5 C 176.5625 98.191406 175.027344 97.804688 173.511719 97.347656 C 171.996094 96.886719 170.507812 96.351562 169.042969 95.746094 C 167.578125 95.140625 166.148438 94.464844 164.75 93.71875 C 163.351562 92.96875 161.996094 92.15625 160.679688 91.277344 C 159.363281 90.398438 158.089844 89.453125 156.867188 88.449219 C 155.640625 87.445312 154.46875 86.382812 153.347656 85.261719 C 152.226562 84.140625 151.164062 82.96875 150.160156 81.742188 C 149.15625 80.519531 148.210938 79.246094 147.332031 77.929688 C 146.453125 76.613281 145.636719 75.253906 144.890625 73.859375 C 144.144531 72.460938 143.46875 71.03125 142.863281 69.566406 C 142.253906 68.101562 141.722656 66.613281 141.261719 65.097656 C 140.800781 63.582031 140.417969 62.046875 140.109375 60.492188 C 139.800781 58.9375 139.566406 57.371094 139.414062 55.796875 C 139.257812 54.21875 139.179688 52.640625 139.179688 51.054688 C 139.179688 49.46875 139.257812 47.890625 139.414062 46.3125 C 139.566406 44.734375 139.800781 43.171875 140.109375 41.617188 C 140.417969 40.0625 140.800781 38.527344 141.261719 37.011719 C 141.722656 35.496094 142.253906 34.007812 142.863281 32.542969 C 143.46875 31.078125 144.144531 29.648438 144.890625 28.25 C 145.636719 26.851562 146.453125 25.496094 147.332031 24.179688 C 148.210938 22.863281 149.15625 21.589844 150.160156 20.367188 C 151.164062 19.140625 152.226562 17.96875 153.347656 16.847656 C 154.46875 15.726562 155.640625 14.664062 156.867188 13.660156 C 158.089844 12.65625 159.363281 11.710938 160.679688 10.832031 C 161.996094 9.953125 163.351562 9.136719 164.75 8.390625 C 166.148438 7.644531 167.578125 6.96875 169.042969 6.363281 C 170.507812 5.753906 171.996094 5.222656 173.511719 4.761719 C 175.027344 4.300781 176.5625 3.917969 178.117188 3.609375 C 179.671875 3.300781 181.234375 3.066406 182.8125 2.914062 C 184.390625 2.757812 185.96875 2.679688 187.554688 2.679688 C 189.140625 2.679688 190.71875 2.757812 192.296875 2.914062 C 193.871094 3.066406 195.4375 3.300781 196.992188 3.609375 C 198.546875 3.917969 200.082031 4.300781 201.597656 4.761719 C 203.113281 5.222656 204.601562 5.753906 206.066406 6.363281 C 207.53125 6.96875 208.960938 7.644531 210.359375 8.390625 C 211.753906 9.136719 213.113281 9.953125 214.429688 10.832031 C 215.746094 11.710938 217.019531 12.65625 218.242188 13.660156 C 219.46875 14.664062 220.640625 15.726562 221.761719 16.847656 C 222.882812 17.96875 223.945312 19.140625 224.949219 20.367188 C 225.953125 21.589844 226.898438 22.863281 227.777344 24.179688 C 228.65625 25.496094 229.46875 26.851562 230.21875 28.25 C 230.964844 29.648438 231.640625 31.078125 232.246094 32.542969 C 232.851562 34.007812 233.386719 35.496094 233.847656 37.011719 C 234.304688 38.527344 234.691406 40.0625 235 41.617188 C 235.308594 43.171875 235.542969 44.734375 235.695312 46.3125 C 235.851562 47.890625 235.929688 49.46875 235.929688 51.054688 Z M 235.929688 51.054688 " fill-opacity="1" fill-rule="nonzero"/></g><g clip-path="url(#6a469aa861)"><path fill="#000000" d="M 187.5 102 C 159.324219 102 136.5 79.019531 136.5 51 C 136.5 22.980469 159.324219 0 187.5 0 C 215.675781 0 238.5 22.824219 238.5 51 C 238.5 79.175781 215.519531 102 187.5 102 Z M 187.5 3.148438 C 161.054688 3.148438 139.648438 24.554688 139.648438 51 C 139.648438 77.445312 161.054688 98.851562 187.5 98.851562 C 213.945312 98.851562 235.351562 77.445312 235.351562 51 C 235.351562 24.554688 213.785156 3.148438 187.5 3.148438 Z M 187.5 3.148438 " fill-opacity="1" fill-rule="nonzero"/></g><g clip-path="url(#b9cde93399)"><path fill="#ffffff" d="M 234.589844 324.054688 C 234.589844 325.640625 234.511719 327.21875 234.355469 328.796875 C 234.203125 330.371094 233.96875 331.9375 233.660156 333.492188 C 233.351562 335.046875 232.964844 336.582031 232.507812 338.097656 C 232.046875 339.613281 231.515625 341.101562 230.90625 342.566406 C 230.300781 344.03125 229.625 345.460938 228.878906 346.859375 C 228.128906 348.253906 227.316406 349.613281 226.4375 350.929688 C 225.558594 352.246094 224.613281 353.519531 223.609375 354.742188 C 222.605469 355.96875 221.542969 357.140625 220.421875 358.261719 C 219.300781 359.382812 218.128906 360.445312 216.902344 361.449219 C 215.679688 362.453125 214.40625 363.398438 213.089844 364.277344 C 211.773438 365.15625 210.414062 365.96875 209.019531 366.71875 C 207.621094 367.464844 206.191406 368.140625 204.726562 368.746094 C 203.261719 369.351562 201.773438 369.886719 200.257812 370.347656 C 198.742188 370.804688 197.207031 371.191406 195.652344 371.5 C 194.097656 371.808594 192.53125 372.042969 190.957031 372.195312 C 189.378906 372.351562 187.800781 372.429688 186.214844 372.429688 C 184.628906 372.429688 183.050781 372.351562 181.472656 372.195312 C 179.894531 372.042969 178.332031 371.808594 176.777344 371.5 C 175.222656 371.191406 173.6875 370.804688 172.171875 370.347656 C 170.65625 369.886719 169.167969 369.351562 167.703125 368.746094 C 166.238281 368.140625 164.808594 367.464844 163.410156 366.71875 C 162.011719 365.96875 160.65625 365.15625 159.339844 364.277344 C 158.023438 363.398438 156.75 362.453125 155.527344 361.449219 C 154.300781 360.445312 153.128906 359.382812 152.007812 358.261719 C 150.886719 357.140625 149.824219 355.96875 148.820312 354.742188 C 147.816406 353.519531 146.871094 352.246094 145.992188 350.929688 C 145.113281 349.613281 144.296875 348.253906 143.550781 346.859375 C 142.804688 345.460938 142.128906 344.03125 141.523438 342.566406 C 140.914062 341.101562 140.382812 339.613281 139.921875 338.097656 C 139.460938 336.582031 139.078125 335.046875 138.769531 333.492188 C 138.460938 331.9375 138.226562 330.371094 138.074219 328.796875 C 137.917969 327.21875 137.839844 325.640625 137.839844 324.054688 C 137.839844 322.46875 137.917969 320.890625 138.074219 319.3125 C 138.226562 317.734375 138.460938 316.171875 138.769531 314.617188 C 139.078125 313.0625 139.460938 311.527344 139.921875 310.011719 C 140.382812 308.496094 140.914062 307.007812 141.523438 305.542969 C 142.128906 304.078125 142.804688 302.648438 143.550781 301.25 C 144.296875 299.851562 145.113281 298.496094 145.992188 297.179688 C 146.871094 295.863281 147.816406 294.589844 148.820312 293.367188 C 149.824219 292.140625 150.886719 290.96875 152.007812 289.847656 C 153.128906 288.726562 154.300781 287.664062 155.527344 286.660156 C 156.75 285.65625 158.023438 284.710938 159.339844 283.832031 C 160.65625 282.953125 162.011719 282.136719 163.410156 281.390625 C 164.808594 280.644531 166.238281 279.96875 167.703125 279.363281 C 169.167969 278.753906 170.65625 278.222656 172.171875 277.761719 C 173.6875 277.300781 175.222656 276.917969 176.777344 276.609375 C 178.332031 276.300781 179.894531 276.066406 181.472656 275.914062 C 183.050781 275.757812 184.628906 275.679688 186.214844 275.679688 C 187.800781 275.679688 189.378906 275.757812 190.957031 275.914062 C 192.53125 276.066406 194.097656 276.300781 195.652344 276.609375 C 197.207031 276.917969 198.742188 277.300781 200.257812 277.761719 C 201.773438 278.222656 203.261719 278.753906 204.726562 279.363281 C 206.191406 279.96875 207.621094 280.644531 209.019531 281.390625 C 210.414062 282.136719 211.773438 282.953125 213.089844 283.832031 C 214.40625 284.710938 215.679688 285.65625 216.902344 286.660156 C 218.128906 287.664062 219.300781 288.726562 220.421875 289.847656 C 221.542969 290.96875 222.605469 292.140625 223.609375 293.367188 C 224.613281 294.589844 225.558594 295.863281 226.4375 297.179688 C 227.316406 298.496094 228.128906 299.851562 228.878906 301.25 C 229.625 302.648438 230.300781 304.078125 230.90625 305.542969 C 231.515625 307.007812 232.046875 308.496094 232.507812 310.011719 C 232.964844 311.527344 233.351562 313.0625 233.660156 314.617188 C 233.96875 316.171875 234.203125 317.734375 234.355469 319.3125 C 234.511719 320.890625 234.589844 322.46875 234.589844 324.054688 Z M 234.589844 324.054688 " fill-opacity="1" fill-rule="nonzero"/></g><g clip-path="url(#677efeaea3)"><path fill="#000000" d="M 186.160156 375 C 157.984375 375 135.160156 352.019531 135.160156 324 C 135.160156 295.980469 157.984375 273 186.160156 273 C 214.335938 273 237.160156 295.824219 237.160156 324 C 237.160156 352.175781 214.179688 375 186.160156 375 Z M 186.160156 276.148438 C 159.714844 276.148438 138.308594 297.554688 138.308594 324 C 138.308594 350.445312 159.714844 371.851562 186.160156 371.851562 C 212.605469 371.851562 234.011719 350.445312 234.011719 324 C 234.011719 297.554688 212.449219 276.148438 186.160156 276.148438 Z M 186.160156 276.148438 " fill-opacity="1" fill-rule="nonzero"/></g><g fill="#000000" fill-opacity="1"><g transform="translate(158.761107, 74.612135)"><g><path d="M 12.3125 -47.953125 L 12.3125 -17.390625 L 21.875 -26.484375 C 22.675781 -27.191406 23.078125 -27.835938 23.078125 -28.421875 C 23.078125 -28.828125 22.863281 -29.160156 22.4375 -29.421875 C 22.007812 -29.691406 21.394531 -29.828125 20.59375 -29.828125 L 20.59375 -31.03125 L 34.3125 -31.03125 L 34.3125 -29.828125 L 33.84375 -29.828125 C 31.75 -29.828125 30 -29.457031 28.59375 -28.71875 C 27.1875 -27.988281 25.566406 -26.753906 23.734375 -25.015625 L 17.515625 -19.125 L 25.875 -8.296875 C 27.4375 -6.285156 28.738281 -4.78125 29.78125 -3.78125 C 30.832031 -2.78125 31.804688 -2.097656 32.703125 -1.734375 C 33.597656 -1.378906 34.601562 -1.203125 35.71875 -1.203125 L 35.71875 0 L 20.796875 0 L 20.796875 -1.203125 C 22.222656 -1.296875 22.9375 -1.71875 22.9375 -2.46875 C 22.9375 -3.226562 22.488281 -4.125 21.59375 -5.15625 L 12.4375 -17.046875 L 12.3125 -17.046875 L 12.3125 -7.09375 C 12.3125 -5.4375 12.488281 -4.1875 12.84375 -3.34375 C 13.195312 -2.5 13.726562 -1.929688 14.4375 -1.640625 C 15.15625 -1.347656 16.179688 -1.203125 17.515625 -1.203125 L 17.515625 0 L 1.734375 0 L 1.734375 -1.203125 C 3.023438 -1.203125 4.023438 -1.347656 4.734375 -1.640625 C 5.453125 -1.929688 5.976562 -2.488281 6.3125 -3.3125 C 6.65625 -4.132812 6.828125 -5.394531 6.828125 -7.09375 L 6.828125 -39.0625 C 6.828125 -40.613281 6.578125 -41.722656 6.078125 -42.390625 C 5.585938 -43.066406 4.742188 -43.40625 3.546875 -43.40625 C 3.316406 -43.40625 3.066406 -43.378906 2.796875 -43.328125 C 2.535156 -43.285156 2.316406 -43.222656 2.140625 -43.140625 L 1.734375 -44.265625 L 11.171875 -47.953125 Z M 12.3125 -47.953125 "/></g></g></g><g fill="#000000" fill-opacity="1"><g transform="translate(195.671756, 74.612135)"><g><path d="M 9.09375 -48.15625 C 10.070312 -48.15625 10.894531 -47.816406 11.5625 -47.140625 C 12.238281 -46.472656 12.578125 -45.671875 12.578125 -44.734375 C 12.578125 -43.753906 12.238281 -42.929688 11.5625 -42.265625 C 10.894531 -41.597656 10.070312 -41.265625 9.09375 -41.265625 C 8.15625 -41.265625 7.351562 -41.597656 6.6875 -42.265625 C 6.019531 -42.929688 5.6875 -43.753906 5.6875 -44.734375 C 5.6875 -45.671875 6.019531 -46.472656 6.6875 -47.140625 C 7.351562 -47.816406 8.15625 -48.15625 9.09375 -48.15625 Z M 12.03125 -6.953125 C 12.03125 -4.765625 12.382812 -3.269531 13.09375 -2.46875 C 13.8125 -1.664062 14.972656 -1.242188 16.578125 -1.203125 L 16.578125 0 L 1.53125 0 L 1.53125 -1.203125 C 3.363281 -1.203125 4.65625 -1.625 5.40625 -2.46875 C 6.164062 -3.320312 6.546875 -4.863281 6.546875 -7.09375 L 6.546875 -23.265625 C 6.546875 -24.472656 6.28125 -25.457031 5.75 -26.21875 C 5.21875 -26.976562 4.394531 -27.359375 3.28125 -27.359375 C 2.789062 -27.359375 2.34375 -27.242188 1.9375 -27.015625 L 1.53125 -28.21875 L 10.828125 -31.765625 L 12.03125 -31.765625 Z M 12.03125 -6.953125 "/></g></g></g><g fill="#000000" fill-opacity="1"><g transform="translate(6.685778, 77.613298)"><g><path d="M 18.0625 -44.734375 C 15.34375 -44.648438 13.984375 -43.671875 13.984375 -41.796875 C 13.984375 -41.171875 14.09375 -40.5 14.3125 -39.78125 C 14.53125 -39.070312 15.039062 -37.601562 15.84375 -35.375 L 24.203125 -12.109375 L 24.34375 -12.109375 L 31.703125 -32.5625 L 29.09375 -39.390625 C 28.550781 -40.773438 28.066406 -41.8125 27.640625 -42.5 C 27.222656 -43.1875 26.65625 -43.707031 25.9375 -44.0625 C 25.226562 -44.425781 24.226562 -44.648438 22.9375 -44.734375 L 22.9375 -45.9375 L 41.1875 -45.9375 L 41.1875 -44.734375 C 39.8125 -44.597656 38.707031 -44.296875 37.875 -43.828125 C 37.050781 -43.367188 36.640625 -42.582031 36.640625 -41.46875 C 36.640625 -40.082031 37.039062 -38.410156 37.84375 -36.453125 L 47.21875 -12.109375 L 56.046875 -36.984375 C 56.535156 -38.316406 56.84375 -39.257812 56.96875 -39.8125 C 57.101562 -40.375 57.171875 -40.988281 57.171875 -41.65625 C 57.171875 -43.664062 55.566406 -44.691406 52.359375 -44.734375 L 52.359375 -45.9375 L 65.671875 -45.9375 L 65.671875 -44.734375 C 64.148438 -44.691406 62.921875 -44.066406 61.984375 -42.859375 C 61.054688 -41.660156 60.007812 -39.410156 58.84375 -36.109375 L 45.75 0.9375 L 44.46875 0.9375 L 33.296875 -28.421875 L 22.609375 0.9375 L 21.53125 0.9375 L 7.015625 -38.453125 C 6.304688 -40.367188 5.671875 -41.75 5.109375 -42.59375 C 4.554688 -43.445312 3.96875 -43.992188 3.34375 -44.234375 C 2.71875 -44.484375 1.757812 -44.648438 0.46875 -44.734375 L 0.46875 -45.9375 L 18.0625 -45.9375 Z M 18.0625 -44.734375 "/></g></g></g><g fill="#000000" fill-opacity="1"><g transform="translate(72.884213, 77.613298)"><g><path d="M 9.09375 -48.15625 C 10.070312 -48.15625 10.894531 -47.816406 11.5625 -47.140625 C 12.238281 -46.472656 12.578125 -45.671875 12.578125 -44.734375 C 12.578125 -43.753906 12.238281 -42.929688 11.5625 -42.265625 C 10.894531 -41.597656 10.070312 -41.265625 9.09375 -41.265625 C 8.15625 -41.265625 7.351562 -41.597656 6.6875 -42.265625 C 6.019531 -42.929688 5.6875 -43.753906 5.6875 -44.734375 C 5.6875 -45.671875 6.019531 -46.472656 6.6875 -47.140625 C 7.351562 -47.816406 8.15625 -48.15625 9.09375 -48.15625 Z M 12.03125 -6.953125 C 12.03125 -4.765625 12.382812 -3.269531 13.09375 -2.46875 C 13.8125 -1.664062 14.972656 -1.242188 16.578125 -1.203125 L 16.578125 0 L 1.53125 0 L 1.53125 -1.203125 C 3.363281 -1.203125 4.65625 -1.625 5.40625 -2.46875 C 6.164062 -3.320312 6.546875 -4.863281 6.546875 -7.09375 L 6.546875 -23.265625 C 6.546875 -24.472656 6.28125 -25.457031 5.75 -26.21875 C 5.21875 -26.976562 4.394531 -27.359375 3.28125 -27.359375 C 2.789062 -27.359375 2.34375 -27.242188 1.9375 -27.015625 L 1.53125 -28.21875 L 10.828125 -31.765625 L 12.03125 -31.765625 Z M 12.03125 -6.953125 "/></g></g></g><g fill="#000000" fill-opacity="1"><g transform="translate(289.001104, 75.1445)"><g><path d="M 12.28125 -48.671875 L 12.28125 -7.125 C 12.28125 -4.863281 12.609375 -3.3125 13.265625 -2.46875 C 13.921875 -1.632812 15.109375 -1.21875 16.828125 -1.21875 L 16.828125 0 L 1.5625 0 L 1.5625 -1.21875 C 2.832031 -1.21875 3.828125 -1.351562 4.546875 -1.625 C 5.273438 -1.894531 5.816406 -2.457031 6.171875 -3.3125 C 6.535156 -4.175781 6.71875 -5.445312 6.71875 -7.125 L 6.71875 -39.234375 C 6.71875 -42.265625 5.65625 -43.78125 3.53125 -43.78125 C 2.9375 -43.78125 2.414062 -43.664062 1.96875 -43.4375 L 1.5625 -44.59375 L 11.0625 -48.671875 Z M 12.28125 -48.671875 "/></g></g></g><g fill="#000000" fill-opacity="1"><g transform="translate(307.394951, 75.1445)"><g><path d="M 11.875 -32.234375 L 11.875 -25.796875 C 15.769531 -30.085938 19.300781 -32.234375 22.46875 -32.234375 C 24.550781 -32.234375 26.257812 -31.65625 27.59375 -30.5 C 28.925781 -29.351562 29.84375 -27.648438 30.34375 -25.390625 C 33.78125 -29.953125 37.535156 -32.234375 41.609375 -32.234375 C 44.546875 -32.234375 46.660156 -31.179688 47.953125 -29.078125 C 49.242188 -26.972656 49.890625 -24.539062 49.890625 -21.78125 L 49.890625 -7.1875 C 49.890625 -5.46875 50.054688 -4.191406 50.390625 -3.359375 C 50.734375 -2.523438 51.265625 -1.957031 51.984375 -1.65625 C 52.710938 -1.363281 53.734375 -1.21875 55.046875 -1.21875 L 55.046875 0 L 39.03125 0 L 39.03125 -1.21875 C 40.425781 -1.21875 41.484375 -1.351562 42.203125 -1.625 C 42.929688 -1.894531 43.46875 -2.457031 43.8125 -3.3125 C 44.15625 -4.175781 44.328125 -5.515625 44.328125 -7.328125 L 44.328125 -22.40625 C 44.328125 -23.988281 43.863281 -25.34375 42.9375 -26.46875 C 42.007812 -27.601562 40.660156 -28.171875 38.890625 -28.171875 C 37.441406 -28.171875 35.957031 -27.785156 34.4375 -27.015625 C 32.925781 -26.242188 31.671875 -25.222656 30.671875 -23.953125 L 30.890625 -19.953125 L 30.890625 -7.1875 C 30.890625 -5.46875 31.066406 -4.191406 31.421875 -3.359375 C 31.785156 -2.523438 32.316406 -1.957031 33.015625 -1.65625 C 33.722656 -1.363281 34.734375 -1.21875 36.046875 -1.21875 L 36.046875 0 L 19.953125 0 L 19.953125 -1.21875 C 21.359375 -1.21875 22.429688 -1.351562 23.171875 -1.625 C 23.921875 -1.894531 24.460938 -2.445312 24.796875 -3.28125 C 25.140625 -4.125 25.3125 -5.425781 25.3125 -7.1875 L 25.3125 -21.859375 C 25.3125 -23.441406 24.859375 -24.890625 23.953125 -26.203125 C 23.054688 -27.515625 21.703125 -28.171875 19.890625 -28.171875 C 18.710938 -28.171875 17.421875 -27.828125 16.015625 -27.140625 C 14.617188 -26.460938 13.238281 -25.425781 11.875 -24.03125 L 11.875 -7.1875 C 11.875 -4.882812 12.234375 -3.3125 12.953125 -2.46875 C 13.679688 -1.632812 14.863281 -1.21875 16.5 -1.21875 L 16.90625 -1.21875 L 16.90625 0 L 1.015625 0 L 1.015625 -1.21875 C 2.421875 -1.21875 3.484375 -1.351562 4.203125 -1.625 C 4.929688 -1.894531 5.460938 -2.457031 5.796875 -3.3125 C 6.140625 -4.175781 6.3125 -5.46875 6.3125 -7.1875 L 6.3125 -23.28125 C 6.3125 -24.59375 6.039062 -25.675781 5.5 -26.53125 C 4.957031 -27.394531 4.097656 -27.828125 2.921875 -27.828125 C 2.242188 -27.828125 1.609375 -27.710938 1.015625 -27.484375 L 0.546875 -28.640625 L 10.71875 -32.234375 Z M 11.875 -32.234375 "/></g></g></g><g fill="#000000" fill-opacity="1"><g transform="translate(11.817548, 208.650599)"><g><path d="M 39.984375 -36.3125 L 38.828125 -36.3125 C 38.367188 -38.894531 37.53125 -40.804688 36.3125 -42.046875 C 35.09375 -43.296875 33.394531 -43.921875 31.21875 -43.921875 L 16.5 -43.921875 L 16.5 -25.921875 L 28.578125 -25.921875 C 30.742188 -25.921875 32.28125 -26.460938 33.1875 -27.546875 C 34.09375 -28.640625 34.566406 -30.363281 34.609375 -32.71875 L 35.84375 -32.71875 L 35.84375 -16.296875 L 34.609375 -16.296875 C 34.609375 -18.640625 34.15625 -20.378906 33.25 -21.515625 C 32.351562 -22.648438 30.75 -23.21875 28.4375 -23.21875 L 16.5 -23.21875 L 16.5 -6.171875 C 16.5 -3.867188 17.398438 -2.71875 19.203125 -2.71875 L 31.15625 -2.71875 C 33.644531 -2.71875 35.835938 -3.472656 37.734375 -4.984375 C 39.640625 -6.503906 41.179688 -8.710938 42.359375 -11.609375 L 43.78125 -11.609375 L 39.984375 0 L 2.4375 0 L 2.4375 -1.21875 C 4.789062 -1.21875 6.5 -1.613281 7.5625 -2.40625 C 8.625 -3.195312 9.15625 -4.679688 9.15625 -6.859375 L 9.15625 -40.25 C 9.15625 -42.0625 8.625 -43.375 7.5625 -44.1875 C 6.5 -45 4.789062 -45.40625 2.4375 -45.40625 L 2.4375 -46.625 L 39.4375 -46.625 Z M 39.984375 -36.3125 "/></g></g></g><g fill="#000000" fill-opacity="1"><g transform="translate(57.089491, 208.650599)"><g><path d="M 15 -30.265625 C 13.820312 -30.179688 12.960938 -29.921875 12.421875 -29.484375 C 11.878906 -29.054688 11.609375 -28.414062 11.609375 -27.5625 C 11.609375 -26.832031 11.71875 -26.113281 11.9375 -25.40625 C 12.164062 -24.707031 12.394531 -24.097656 12.625 -23.578125 C 12.851562 -23.066406 12.988281 -22.742188 13.03125 -22.609375 L 19.140625 -7.671875 L 26.40625 -25.59375 C 26.851562 -26.71875 27.078125 -27.550781 27.078125 -28.09375 C 27.078125 -28.863281 26.816406 -29.394531 26.296875 -29.6875 C 25.773438 -29.988281 24.882812 -30.179688 23.625 -30.265625 L 23.625 -31.5 L 33.0625 -31.5 L 33.0625 -30.265625 C 31.925781 -30.222656 31.085938 -29.816406 30.546875 -29.046875 C 30.003906 -28.273438 29.4375 -27.125 28.84375 -25.59375 L 18.265625 0.875 L 16.90625 0.875 L 8.890625 -18.796875 C 7.484375 -22.234375 6.414062 -24.675781 5.6875 -26.125 C 4.96875 -27.570312 4.257812 -28.601562 3.5625 -29.21875 C 2.863281 -29.832031 1.96875 -30.179688 0.875 -30.265625 L 0.875 -31.5 L 15 -31.5 Z M 15 -30.265625 "/></g></g></g><g fill="#000000" fill-opacity="1"><g transform="translate(158.337395, 204.86704)"><g><path d="M 15.953125 -32.234375 C 19.484375 -32.234375 22.34375 -31.054688 24.53125 -28.703125 C 26.726562 -26.359375 27.828125 -23.304688 27.828125 -19.546875 L 6.515625 -19.546875 L 6.515625 -18.671875 C 6.515625 -16.265625 6.988281 -13.960938 7.9375 -11.765625 C 8.882812 -9.578125 10.21875 -7.800781 11.9375 -6.4375 C 13.664062 -5.082031 15.613281 -4.40625 17.78125 -4.40625 C 22.082031 -4.40625 25.09375 -6.804688 26.8125 -11.609375 L 27.828125 -11.0625 C 27.109375 -7.351562 25.613281 -4.421875 23.34375 -2.265625 C 21.082031 -0.117188 18.367188 0.953125 15.203125 0.953125 C 12.847656 0.953125 10.664062 0.34375 8.65625 -0.875 C 6.644531 -2.101562 5.015625 -3.9375 3.765625 -6.375 C 2.523438 -8.820312 1.90625 -11.785156 1.90625 -15.265625 C 1.90625 -18.617188 2.492188 -21.582031 3.671875 -24.15625 C 4.847656 -26.738281 6.5 -28.726562 8.625 -30.125 C 10.75 -31.53125 13.191406 -32.234375 15.953125 -32.234375 Z M 14.046875 -29.859375 C 12.148438 -29.859375 10.507812 -29.113281 9.125 -27.625 C 7.75 -26.132812 6.925781 -24.144531 6.65625 -21.65625 L 20.84375 -21.65625 C 20.75 -24.09375 20.125 -26.066406 18.96875 -27.578125 C 17.8125 -29.097656 16.171875 -29.859375 14.046875 -29.859375 Z M 14.046875 -29.859375 "/></g></g></g><g fill="#000000" fill-opacity="1"><g transform="translate(188.066191, 204.86704)"><g><path d="M 12.5625 -25.859375 L 12.6875 -25.859375 C 13.863281 -27.941406 15.140625 -29.523438 16.515625 -30.609375 C 17.898438 -31.691406 19.453125 -32.234375 21.171875 -32.234375 C 22.398438 -32.234375 23.394531 -31.859375 24.15625 -31.109375 C 24.925781 -30.367188 25.3125 -29.457031 25.3125 -28.375 C 25.3125 -27.507812 25.003906 -26.78125 24.390625 -26.1875 C 23.785156 -25.601562 23.097656 -25.3125 22.328125 -25.3125 C 21.691406 -25.3125 21.171875 -25.4375 20.765625 -25.6875 C 20.359375 -25.9375 19.953125 -26.265625 19.546875 -26.671875 C 19.453125 -26.722656 19.289062 -26.859375 19.0625 -27.078125 C 18.84375 -27.304688 18.609375 -27.476562 18.359375 -27.59375 C 18.109375 -27.707031 17.847656 -27.765625 17.578125 -27.765625 C 16.535156 -27.765625 15.640625 -27.34375 14.890625 -26.5 C 14.148438 -25.664062 13.375 -24.523438 12.5625 -23.078125 L 12.5625 -7.1875 C 12.5625 -5.425781 12.75 -4.113281 13.125 -3.25 C 13.507812 -2.394531 14.109375 -1.84375 14.921875 -1.59375 C 15.742188 -1.34375 16.945312 -1.21875 18.53125 -1.21875 L 18.53125 0 L 1.828125 0 L 1.828125 -1.21875 L 2.171875 -1.21875 C 3.847656 -1.21875 5.066406 -1.625 5.828125 -2.4375 C 6.597656 -3.257812 6.984375 -4.753906 6.984375 -6.921875 L 6.984375 -22.40625 C 6.984375 -24.53125 6.757812 -25.921875 6.3125 -26.578125 C 5.863281 -27.234375 5.070312 -27.5625 3.9375 -27.5625 C 3.257812 -27.5625 2.691406 -27.425781 2.234375 -27.15625 L 1.828125 -28.296875 L 11.328125 -32.234375 L 12.5625 -32.234375 Z M 12.5625 -25.859375 "/></g></g></g><g fill="#000000" fill-opacity="1"><g transform="translate(289.737271, 207.900599)"><g><path d="M 19.34375 -32.234375 C 22.007812 -32.234375 24.507812 -31.519531 26.84375 -30.09375 C 29.175781 -28.675781 31.03125 -26.78125 32.40625 -24.40625 C 33.789062 -22.03125 34.484375 -19.484375 34.484375 -16.765625 C 34.484375 -13.597656 33.734375 -10.65625 32.234375 -7.9375 C 30.742188 -5.226562 28.742188 -3.066406 26.234375 -1.453125 C 23.722656 0.148438 21.039062 0.953125 18.1875 0.953125 C 15.476562 0.953125 12.957031 0.238281 10.625 -1.1875 C 8.289062 -2.613281 6.441406 -4.535156 5.078125 -6.953125 C 3.722656 -9.378906 3.046875 -12.015625 3.046875 -14.859375 C 3.046875 -17.941406 3.789062 -20.816406 5.28125 -23.484375 C 6.78125 -26.148438 8.785156 -28.273438 11.296875 -29.859375 C 13.804688 -31.441406 16.488281 -32.234375 19.34375 -32.234375 Z M 9.15625 -17.578125 C 9.15625 -14.910156 9.570312 -12.34375 10.40625 -9.875 C 11.25 -7.40625 12.460938 -5.378906 14.046875 -3.796875 C 15.628906 -2.210938 17.53125 -1.421875 19.75 -1.421875 C 22.332031 -1.421875 24.414062 -2.5625 26 -4.84375 C 27.582031 -7.132812 28.375 -10.160156 28.375 -13.921875 C 28.375 -16.898438 27.921875 -19.597656 27.015625 -22.015625 C 26.109375 -24.441406 24.835938 -26.351562 23.203125 -27.75 C 21.578125 -29.15625 19.722656 -29.859375 17.640625 -29.859375 C 15.066406 -29.859375 13.007812 -28.75 11.46875 -26.53125 C 9.925781 -24.320312 9.15625 -21.335938 9.15625 -17.578125 Z M 9.15625 -17.578125 "/></g></g></g><g fill="#000000" fill-opacity="1"><g transform="translate(327.203707, 207.900599)"><g><path d="M 19.203125 -48.671875 C 20.703125 -48.671875 22.117188 -48.410156 23.453125 -47.890625 C 24.785156 -47.367188 25.847656 -46.664062 26.640625 -45.78125 C 27.429688 -44.894531 27.828125 -43.976562 27.828125 -43.03125 C 27.828125 -42.351562 27.554688 -41.726562 27.015625 -41.15625 C 26.472656 -40.59375 25.835938 -40.3125 25.109375 -40.3125 C 24.335938 -40.3125 23.710938 -40.535156 23.234375 -40.984375 C 22.765625 -41.441406 22.210938 -42.125 21.578125 -43.03125 C 20.859375 -44.113281 20.171875 -44.925781 19.515625 -45.46875 C 18.859375 -46.019531 17.960938 -46.296875 16.828125 -46.296875 C 15.515625 -46.296875 14.441406 -45.796875 13.609375 -44.796875 C 12.773438 -43.796875 12.359375 -41.941406 12.359375 -39.234375 L 12.359375 -31.5 L 18.734375 -31.5 L 18.734375 -29.390625 L 12.359375 -29.390625 L 12.359375 -7.1875 C 12.359375 -5.425781 12.535156 -4.125 12.890625 -3.28125 C 13.253906 -2.445312 13.820312 -1.894531 14.59375 -1.625 C 15.363281 -1.351562 16.472656 -1.21875 17.921875 -1.21875 L 17.921875 0 L 1.625 0 L 1.625 -1.21875 C 2.9375 -1.21875 3.941406 -1.363281 4.640625 -1.65625 C 5.347656 -1.957031 5.878906 -2.523438 6.234375 -3.359375 C 6.597656 -4.191406 6.78125 -5.46875 6.78125 -7.1875 L 6.78125 -29.390625 L 2.375 -29.390625 L 2.375 -31.5 L 6.78125 -31.5 L 6.78125 -34.75 C 6.78125 -37.550781 7.378906 -40.003906 8.578125 -42.109375 C 9.785156 -44.210938 11.335938 -45.832031 13.234375 -46.96875 C 15.140625 -48.101562 17.128906 -48.671875 19.203125 -48.671875 Z M 19.203125 -48.671875 "/></g></g></g><g fill="#000000" fill-opacity="1"><g transform="translate(22.719808, 338.764838)"><g><path d="M 15.140625 -30.265625 C 13.828125 -30.265625 12.882812 -30.09375 12.3125 -29.75 C 11.75 -29.414062 11.46875 -28.753906 11.46875 -27.765625 C 11.46875 -26.898438 11.613281 -26.148438 11.90625 -25.515625 C 12.207031 -24.890625 12.378906 -24.53125 12.421875 -24.4375 L 19.8125 -7.875 L 26.546875 -26 C 26.898438 -27.082031 27.078125 -27.828125 27.078125 -28.234375 C 27.078125 -28.960938 26.828125 -29.460938 26.328125 -29.734375 C 25.835938 -30.003906 25.023438 -30.179688 23.890625 -30.265625 L 23.890625 -31.5 L 32.921875 -31.5 L 32.921875 -30.265625 C 32.109375 -30.179688 31.40625 -29.8125 30.8125 -29.15625 C 30.226562 -28.5 29.707031 -27.554688 29.25 -26.328125 L 18.671875 2.171875 C 17.398438 5.472656 15.90625 8.332031 14.1875 10.75 C 12.46875 13.175781 10.066406 14.390625 6.984375 14.390625 C 5.628906 14.390625 4.53125 14.035156 3.6875 13.328125 C 2.851562 12.628906 2.4375 11.738281 2.4375 10.65625 C 2.4375 9.75 2.765625 9 3.421875 8.40625 C 4.078125 7.820312 4.925781 7.53125 5.96875 7.53125 C 6.601562 7.53125 7.191406 7.644531 7.734375 7.875 C 8.273438 8.101562 8.59375 8.238281 8.6875 8.28125 C 9.59375 8.644531 10.25 8.828125 10.65625 8.828125 C 11.875 8.828125 12.96875 8.035156 13.9375 6.453125 C 14.914062 4.867188 16.015625 2.492188 17.234375 -0.671875 L 7.46875 -22.46875 C 6.519531 -24.550781 5.796875 -26.054688 5.296875 -26.984375 C 4.796875 -27.910156 4.21875 -28.664062 3.5625 -29.25 C 2.90625 -29.84375 2.082031 -30.179688 1.09375 -30.265625 L 1.09375 -31.5 L 15.140625 -31.5 Z M 15.140625 -30.265625 "/></g></g></g><g fill="#000000" fill-opacity="1"><g transform="translate(56.656787, 338.764838)"><g><path d="M 11.265625 -41.46875 L 12.359375 -41.46875 L 12.359375 -31.5 L 19.484375 -31.5 L 19.484375 -29.390625 L 12.359375 -29.390625 L 12.359375 -7.53125 C 12.359375 -6.351562 12.695312 -5.300781 13.375 -4.375 C 14.050781 -3.445312 15 -2.984375 16.21875 -2.984375 C 17.03125 -2.984375 17.753906 -3.175781 18.390625 -3.5625 C 19.023438 -3.945312 19.707031 -4.613281 20.4375 -5.5625 L 21.78125 -5.5625 C 20.601562 -3.394531 19.335938 -1.765625 17.984375 -0.671875 C 16.628906 0.410156 15.046875 0.953125 13.234375 0.953125 C 11.242188 0.953125 9.671875 0.21875 8.515625 -1.25 C 7.359375 -2.726562 6.78125 -4.734375 6.78125 -7.265625 L 6.78125 -29.390625 L 1.96875 -29.390625 L 1.96875 -30.75 C 4.28125 -31.695312 6.226562 -33.085938 7.8125 -34.921875 C 9.394531 -36.753906 10.546875 -38.9375 11.265625 -41.46875 Z M 11.265625 -41.46875 "/></g></g></g><g fill="#000000" fill-opacity="1"><g transform="translate(158.214189, 346.524438)"><g><path d="M 12.21875 -25.59375 L 12.359375 -25.59375 C 13.847656 -27.625 15.539062 -29.238281 17.4375 -30.4375 C 19.34375 -31.632812 21.222656 -32.234375 23.078125 -32.234375 C 25.742188 -32.234375 27.765625 -31.226562 29.140625 -29.21875 C 30.523438 -27.207031 31.21875 -24.726562 31.21875 -21.78125 L 31.21875 -7.265625 C 31.21875 -5.546875 31.398438 -4.253906 31.765625 -3.390625 C 32.128906 -2.535156 32.660156 -1.957031 33.359375 -1.65625 C 34.054688 -1.363281 35.0625 -1.21875 36.375 -1.21875 L 36.375 0 L 20.640625 0 L 20.640625 -1.21875 C 21.859375 -1.21875 22.816406 -1.351562 23.515625 -1.625 C 24.222656 -1.894531 24.753906 -2.457031 25.109375 -3.3125 C 25.472656 -4.175781 25.65625 -5.46875 25.65625 -7.1875 L 25.65625 -22.671875 C 25.65625 -24.117188 25.191406 -25.382812 24.265625 -26.46875 C 23.335938 -27.550781 22.015625 -28.09375 20.296875 -28.09375 C 18.890625 -28.09375 17.5625 -27.765625 16.3125 -27.109375 C 15.070312 -26.453125 13.707031 -25.378906 12.21875 -23.890625 L 12.21875 -7.1875 C 12.21875 -5.425781 12.382812 -4.125 12.71875 -3.28125 C 13.0625 -2.445312 13.601562 -1.894531 14.34375 -1.625 C 15.09375 -1.351562 16.191406 -1.21875 17.640625 -1.21875 L 17.640625 0 L 1.703125 0 L 1.703125 -1.21875 C 2.921875 -1.21875 3.878906 -1.363281 4.578125 -1.65625 C 5.285156 -1.957031 5.804688 -2.546875 6.140625 -3.421875 C 6.484375 -4.304688 6.65625 -5.585938 6.65625 -7.265625 L 6.65625 -39.15625 C 6.65625 -41.0625 6.359375 -42.316406 5.765625 -42.921875 C 5.179688 -43.535156 4.4375 -43.84375 3.53125 -43.84375 C 2.894531 -43.84375 2.285156 -43.707031 1.703125 -43.4375 L 1.296875 -44.59375 L 11 -48.671875 L 12.21875 -48.671875 Z M 12.21875 -25.59375 "/></g></g></g><g fill="#000000" fill-opacity="1"><g transform="translate(195.680625, 346.524438)"><g><path d="M 9.234375 -48.875 C 10.222656 -48.875 11.054688 -48.53125 11.734375 -47.84375 C 12.421875 -47.164062 12.765625 -46.351562 12.765625 -45.40625 C 12.765625 -44.414062 12.421875 -43.578125 11.734375 -42.890625 C 11.054688 -42.210938 10.222656 -41.875 9.234375 -41.875 C 8.285156 -41.875 7.46875 -42.210938 6.78125 -42.890625 C 6.101562 -43.578125 5.765625 -44.414062 5.765625 -45.40625 C 5.765625 -46.351562 6.101562 -47.164062 6.78125 -47.84375 C 7.46875 -48.53125 8.285156 -48.875 9.234375 -48.875 Z M 12.21875 -7.0625 C 12.21875 -4.84375 12.578125 -3.328125 13.296875 -2.515625 C 14.023438 -1.703125 15.203125 -1.269531 16.828125 -1.21875 L 16.828125 0 L 1.5625 0 L 1.5625 -1.21875 C 3.414062 -1.21875 4.726562 -1.644531 5.5 -2.5 C 6.269531 -3.363281 6.65625 -4.925781 6.65625 -7.1875 L 6.65625 -23.625 C 6.65625 -24.84375 6.378906 -25.835938 5.828125 -26.609375 C 5.285156 -27.378906 4.453125 -27.765625 3.328125 -27.765625 C 2.828125 -27.765625 2.375 -27.648438 1.96875 -27.421875 L 1.5625 -28.640625 L 11 -32.234375 L 12.21875 -32.234375 Z M 12.21875 -7.0625 "/></g></g></g><g fill="#000000" fill-opacity="1"><g transform="translate(287.82316, 340.853061)"><g><path d="M 12.15625 -25.59375 C 14.5 -28.125 16.414062 -29.863281 17.90625 -30.8125 C 19.40625 -31.757812 21.0625 -32.234375 22.875 -32.234375 C 24.863281 -32.234375 26.46875 -31.703125 27.6875 -30.640625 C 28.914062 -29.578125 29.800781 -28.273438 30.34375 -26.734375 C 30.882812 -25.203125 31.15625 -23.6875 31.15625 -22.1875 L 31.15625 -7.1875 C 31.15625 -4.882812 31.515625 -3.335938 32.234375 -2.546875 C 32.960938 -1.753906 34.207031 -1.3125 35.96875 -1.21875 L 35.96875 0 L 20.09375 0 L 20.09375 -1.21875 C 21.539062 -1.21875 22.648438 -1.375 23.421875 -1.6875 C 24.191406 -2.007812 24.742188 -2.585938 25.078125 -3.421875 C 25.421875 -4.265625 25.59375 -5.519531 25.59375 -7.1875 L 25.59375 -22.46875 C 25.59375 -23.914062 25.113281 -25.238281 24.15625 -26.4375 C 23.207031 -27.632812 21.898438 -28.234375 20.234375 -28.234375 C 18.828125 -28.234375 17.488281 -27.859375 16.21875 -27.109375 C 14.957031 -26.367188 13.601562 -25.226562 12.15625 -23.6875 L 12.15625 -7.1875 C 12.15625 -4.84375 12.535156 -3.273438 13.296875 -2.484375 C 14.066406 -1.691406 15.40625 -1.269531 17.3125 -1.21875 L 17.3125 0 L 1.703125 0 L 1.703125 -1.21875 C 3.097656 -1.351562 4.132812 -1.601562 4.8125 -1.96875 C 5.5 -2.332031 5.960938 -2.894531 6.203125 -3.65625 C 6.453125 -4.425781 6.578125 -5.535156 6.578125 -6.984375 L 6.578125 -23.890625 C 6.578125 -24.929688 6.347656 -25.835938 5.890625 -26.609375 C 5.441406 -27.378906 4.722656 -27.765625 3.734375 -27.765625 C 3.273438 -27.765625 2.851562 -27.679688 2.46875 -27.515625 C 2.09375 -27.359375 1.835938 -27.257812 1.703125 -27.21875 L 1.21875 -28.5 L 11 -32.234375 L 12.15625 -32.234375 Z M 12.15625 -25.59375 "/></g></g></g><g fill="#000000" fill-opacity="1"><g transform="translate(325.289596, 340.853061)"><g><path d="M 17.234375 -32.234375 C 19.773438 -32.234375 22.109375 -31.578125 24.234375 -30.265625 L 31.625 -30.265625 C 32.257812 -30.265625 32.632812 -30.175781 32.75 -30 C 32.863281 -29.820312 32.921875 -29.347656 32.921875 -28.578125 C 32.921875 -27.898438 32.875 -27.476562 32.78125 -27.3125 C 32.6875 -27.15625 32.414062 -27.078125 31.96875 -27.078125 L 26.8125 -27.078125 C 27.445312 -26.085938 27.898438 -25.160156 28.171875 -24.296875 C 28.441406 -23.441406 28.578125 -22.445312 28.578125 -21.3125 C 28.578125 -19.226562 28.078125 -17.359375 27.078125 -15.703125 C 26.085938 -14.054688 24.695312 -12.769531 22.90625 -11.84375 C 21.125 -10.914062 19.097656 -10.453125 16.828125 -10.453125 C 15.378906 -10.453125 13.890625 -10.675781 12.359375 -11.125 C 10.546875 -9.5 9.640625 -8.144531 9.640625 -7.0625 C 9.640625 -6.46875 9.96875 -5.988281 10.625 -5.625 C 11.28125 -5.269531 12.648438 -5.09375 14.734375 -5.09375 L 22.46875 -5.09375 C 25.1875 -5.09375 27.5625 -4.503906 29.59375 -3.328125 C 31.625 -2.148438 32.640625 -0.40625 32.640625 1.90625 C 32.640625 4.070312 31.828125 6.113281 30.203125 8.03125 C 28.578125 9.957031 26.414062 11.5 23.71875 12.65625 C 21.03125 13.8125 18.144531 14.390625 15.0625 14.390625 C 12.988281 14.390625 10.941406 14.082031 8.921875 13.46875 C 6.910156 12.863281 5.28125 12.0625 4.03125 11.0625 C 2.789062 10.070312 2.171875 9.054688 2.171875 8.015625 C 2.171875 7.148438 2.578125 6.117188 3.390625 4.921875 C 4.203125 3.722656 5.945312 1.789062 8.625 -0.875 C 6.351562 -1.5625 5.21875 -2.671875 5.21875 -4.203125 C 5.21875 -5.429688 5.691406 -6.664062 6.640625 -7.90625 C 7.597656 -9.15625 8.9375 -10.457031 10.65625 -11.8125 C 8.84375 -12.757812 7.4375 -14.054688 6.4375 -15.703125 C 5.445312 -17.359375 4.953125 -19.160156 4.953125 -21.109375 C 4.953125 -23.191406 5.484375 -25.082031 6.546875 -26.78125 C 7.609375 -28.476562 9.078125 -29.8125 10.953125 -30.78125 C 12.835938 -31.75 14.929688 -32.234375 17.234375 -32.234375 Z M 10.71875 -23.953125 C 10.71875 -22.285156 10.941406 -20.546875 11.390625 -18.734375 C 11.847656 -16.921875 12.617188 -15.367188 13.703125 -14.078125 C 14.796875 -12.796875 16.175781 -12.15625 17.84375 -12.15625 C 19.34375 -12.15625 20.546875 -12.863281 21.453125 -14.28125 C 22.359375 -15.707031 22.8125 -17.53125 22.8125 -19.75 C 22.8125 -21.101562 22.5625 -22.609375 22.0625 -24.265625 C 21.5625 -25.921875 20.789062 -27.347656 19.75 -28.546875 C 18.707031 -29.742188 17.375 -30.34375 15.75 -30.34375 C 14.382812 -30.34375 13.203125 -29.765625 12.203125 -28.609375 C 11.210938 -27.453125 10.71875 -25.898438 10.71875 -23.953125 Z M 21.046875 0.0625 L 18.53125 0.0625 C 16.488281 0.0625 14.820312 0.03125 13.53125 -0.03125 C 12.25 -0.101562 11.132812 -0.273438 10.1875 -0.546875 C 9.144531 0.628906 8.375 1.679688 7.875 2.609375 C 7.375 3.535156 7.125 4.429688 7.125 5.296875 C 7.125 6.921875 8.242188 8.160156 10.484375 9.015625 C 12.722656 9.878906 15.425781 10.3125 18.59375 10.3125 C 20.851562 10.3125 22.890625 10.015625 24.703125 9.421875 C 26.515625 8.835938 27.941406 8.023438 28.984375 6.984375 C 30.023438 5.953125 30.546875 4.800781 30.546875 3.53125 C 30.546875 2.082031 29.785156 1.15625 28.265625 0.75 C 26.753906 0.34375 24.347656 0.113281 21.046875 0.0625 Z M 21.046875 0.0625 "/></g></g></g></svg>