<svg xmlns="http://www.w3.org/2000/svg" xmlns:xlink="http://www.w3.org/1999/xlink" width="500" zoomAndPan="magnify" viewBox="0 0 375 374.999991" height="500" preserveAspectRatio="xMidYMid meet" version="1.0"><defs><g/><clipPath id="7f519078f6"><path d="M 0 0 L 101.25 0 L 101.25 101.25 L 0 101.25 Z M 0 0 " clip-rule="nonzero"/></clipPath><clipPath id="c8f89a08ae"><path d="M 136.585938 0 L 237.835938 0 L 237.835938 100.972656 L 136.585938 100.972656 Z M 136.585938 0 " clip-rule="nonzero"/></clipPath><clipPath id="290bb95ed4"><path d="M 136.585938 0 L 238.585938 0 L 238.585938 101.722656 L 136.585938 101.722656 Z M 136.585938 0 " clip-rule="nonzero"/></clipPath><clipPath id="e85f23cf70"><path d="M 273.664062 0 L 374.914062 0 L 374.914062 101.25 L 273.664062 101.25 Z M 273.664062 0 " clip-rule="nonzero"/></clipPath><clipPath id="72ee9fc60e"><path d="M 272.914062 0 L 374.914062 0 L 374.914062 102 L 272.914062 102 Z M 272.914062 0 " clip-rule="nonzero"/></clipPath><clipPath id="bacfff2b34"><path d="M 0.0625 273.171875 L 101.3125 273.171875 L 101.3125 374.421875 L 0.0625 374.421875 Z M 0.0625 273.171875 " clip-rule="nonzero"/></clipPath><clipPath id="675596e7db"><path d="M 0.0625 273.171875 L 102.0625 273.171875 L 102.0625 375 L 0.0625 375 Z M 0.0625 273.171875 " clip-rule="nonzero"/></clipPath><clipPath id="c6e4ddb94e"><path d="M 136.648438 272.894531 L 237.898438 272.894531 L 237.898438 374.144531 L 136.648438 374.144531 Z M 136.648438 272.894531 " clip-rule="nonzero"/></clipPath><clipPath id="c8c38f7a80"><path d="M 136.648438 272.894531 L 238.648438 272.894531 L 238.648438 374.894531 L 136.648438 374.894531 Z M 136.648438 272.894531 " clip-rule="nonzero"/></clipPath><clipPath id="2e3482b11a"><path d="M 273.726562 273.171875 L 374.976562 273.171875 L 374.976562 374.421875 L 273.726562 374.421875 Z M 273.726562 273.171875 " clip-rule="nonzero"/></clipPath><clipPath id="39a067e541"><path d="M 272.976562 273.171875 L 374.976562 273.171875 L 374.976562 375 L 272.976562 375 Z M 272.976562 273.171875 " clip-rule="nonzero"/></clipPath><clipPath id="d404742925"><path d="M 0 136.585938 L 101.003906 136.585938 L 101.003906 237.835938 L 0 237.835938 Z M 0 136.585938 " clip-rule="nonzero"/></clipPath><clipPath id="95688f37a8"><path d="M 0 136.585938 L 101.753906 136.585938 L 101.753906 238.585938 L 0 238.585938 Z M 0 136.585938 " clip-rule="nonzero"/></clipPath><clipPath id="a8e7aebf66"><path d="M 136.339844 136.308594 L 237.589844 136.308594 L 237.589844 237.558594 L 136.339844 237.558594 Z M 136.339844 136.308594 " clip-rule="nonzero"/></clipPath><clipPath id="af3a72a7a1"><path d="M 136.339844 136.308594 L 238.339844 136.308594 L 238.339844 238.308594 L 136.339844 238.308594 Z M 136.339844 136.308594 " clip-rule="nonzero"/></clipPath><clipPath id="8c947b3269"><path d="M 273.417969 136.585938 L 374.667969 136.585938 L 374.667969 237.835938 L 273.417969 237.835938 Z M 273.417969 136.585938 " clip-rule="nonzero"/></clipPath><clipPath id="2bde66fcbb"><path d="M 272.667969 136.585938 L 374.667969 136.585938 L 374.667969 238.585938 L 272.667969 238.585938 Z M 272.667969 136.585938 " clip-rule="nonzero"/></clipPath></defs><g clip-path="url(#7f519078f6)"><path fill="#ffffff" d="M 101.25 50.625 C 101.25 52.28125 101.167969 53.9375 101.007812 55.585938 C 100.84375 57.238281 100.601562 58.875 100.277344 60.5 C 99.953125 62.128906 99.550781 63.734375 99.070312 65.320312 C 98.589844 66.90625 98.03125 68.464844 97.394531 70 C 96.761719 71.53125 96.054688 73.027344 95.273438 74.488281 C 94.492188 75.953125 93.640625 77.371094 92.71875 78.75 C 91.796875 80.128906 90.808594 81.460938 89.757812 82.742188 C 88.707031 84.023438 87.59375 85.25 86.421875 86.421875 C 85.25 87.59375 84.023438 88.707031 82.742188 89.757812 C 81.460938 90.808594 80.128906 91.796875 78.75 92.71875 C 77.371094 93.640625 75.953125 94.492188 74.488281 95.273438 C 73.027344 96.054688 71.53125 96.761719 70 97.394531 C 68.464844 98.03125 66.90625 98.589844 65.320312 99.070312 C 63.734375 99.550781 62.128906 99.953125 60.5 100.277344 C 58.875 100.601562 57.238281 100.84375 55.585938 101.007812 C 53.9375 101.167969 52.28125 101.25 50.625 101.25 C 48.96875 101.25 47.3125 101.167969 45.664062 101.007812 C 44.011719 100.84375 42.375 100.601562 40.75 100.277344 C 39.121094 99.953125 37.515625 99.550781 35.929688 99.070312 C 34.34375 98.589844 32.785156 98.03125 31.25 97.394531 C 29.71875 96.761719 28.222656 96.054688 26.761719 95.273438 C 25.296875 94.492188 23.878906 93.640625 22.5 92.71875 C 21.121094 91.796875 19.789062 90.808594 18.507812 89.757812 C 17.226562 88.707031 16 87.59375 14.828125 86.421875 C 13.65625 85.25 12.542969 84.023438 11.492188 82.742188 C 10.441406 81.460938 9.453125 80.128906 8.53125 78.75 C 7.609375 77.371094 6.757812 75.953125 5.976562 74.488281 C 5.195312 73.027344 4.488281 71.53125 3.855469 70 C 3.21875 68.464844 2.660156 66.90625 2.179688 65.320312 C 1.699219 63.734375 1.296875 62.128906 0.972656 60.5 C 0.648438 58.875 0.40625 57.238281 0.242188 55.585938 C 0.0820312 53.9375 0 52.28125 0 50.625 C 0 48.96875 0.0820312 47.3125 0.242188 45.664062 C 0.40625 44.011719 0.648438 42.375 0.972656 40.75 C 1.296875 39.121094 1.699219 37.515625 2.179688 35.929688 C 2.660156 34.34375 3.21875 32.785156 3.855469 31.25 C 4.488281 29.71875 5.195312 28.222656 5.976562 26.761719 C 6.757812 25.296875 7.609375 23.878906 8.53125 22.5 C 9.453125 21.121094 10.441406 19.789062 11.492188 18.507812 C 12.542969 17.226562 13.65625 16 14.828125 14.828125 C 16 13.65625 17.226562 12.542969 18.507812 11.492188 C 19.789062 10.441406 21.121094 9.453125 22.5 8.53125 C 23.878906 7.609375 25.296875 6.757812 26.761719 5.976562 C 28.222656 5.195312 29.71875 4.488281 31.25 3.855469 C 32.785156 3.21875 34.34375 2.660156 35.929688 2.179688 C 37.515625 1.699219 39.121094 1.296875 40.75 0.972656 C 42.375 0.648438 44.011719 0.40625 45.664062 0.242188 C 47.3125 0.0820312 48.96875 0 50.625 0 C 52.28125 0 53.9375 0.0820312 55.585938 0.242188 C 57.238281 0.40625 58.875 0.648438 60.5 0.972656 C 62.128906 1.296875 63.734375 1.699219 65.320312 2.179688 C 66.90625 2.660156 68.464844 3.21875 70 3.855469 C 71.53125 4.488281 73.027344 5.195312 74.488281 5.976562 C 75.953125 6.757812 77.371094 7.609375 78.75 8.53125 C 80.128906 9.453125 81.460938 10.441406 82.742188 11.492188 C 84.023438 12.542969 85.25 13.65625 86.421875 14.828125 C 87.59375 16 88.707031 17.226562 89.757812 18.507812 C 90.808594 19.789062 91.796875 21.121094 92.71875 22.5 C 93.640625 23.878906 94.492188 25.296875 95.273438 26.761719 C 96.054688 28.222656 96.761719 29.71875 97.394531 31.25 C 98.03125 32.785156 98.589844 34.34375 99.070312 35.929688 C 99.550781 37.515625 99.953125 39.121094 100.277344 40.75 C 100.601562 42.375 100.84375 44.011719 101.007812 45.664062 C 101.167969 47.3125 101.25 48.96875 101.25 50.625 Z M 101.25 50.625 " fill-opacity="1" fill-rule="nonzero"/></g><path fill="#000000" d="M 51 102 C 22.824219 102 0 79.019531 0 51 C 0 22.980469 22.824219 0 51 0 C 79.175781 0 102 22.824219 102 51 C 102 79.175781 79.019531 102 51 102 Z M 51 3.148438 C 24.554688 3.148438 3.148438 24.554688 3.148438 51 C 3.148438 77.445312 24.554688 98.851562 51 98.851562 C 77.445312 98.851562 98.851562 77.445312 98.851562 51 C 98.851562 24.554688 77.285156 3.148438 51 3.148438 Z M 51 3.148438 " fill-opacity="1" fill-rule="nonzero"/><g clip-path="url(#c8f89a08ae)"><path fill="#ffffff" d="M 237.835938 50.347656 C 237.835938 52.007812 237.753906 53.660156 237.59375 55.308594 C 237.429688 56.960938 237.1875 58.597656 236.863281 60.222656 C 236.539062 61.851562 236.136719 63.457031 235.65625 65.042969 C 235.175781 66.628906 234.617188 68.191406 233.984375 69.722656 C 233.347656 71.253906 232.640625 72.75 231.859375 74.210938 C 231.078125 75.675781 230.226562 77.09375 229.304688 78.472656 C 228.382812 79.851562 227.398438 81.183594 226.34375 82.464844 C 225.292969 83.746094 224.179688 84.972656 223.007812 86.144531 C 221.835938 87.316406 220.609375 88.429688 219.328125 89.480469 C 218.046875 90.535156 216.714844 91.519531 215.335938 92.441406 C 213.957031 93.363281 212.539062 94.214844 211.074219 94.996094 C 209.613281 95.777344 208.117188 96.484375 206.585938 97.121094 C 205.054688 97.753906 203.492188 98.3125 201.90625 98.792969 C 200.320312 99.273438 198.714844 99.675781 197.089844 100 C 195.460938 100.324219 193.824219 100.566406 192.171875 100.730469 C 190.523438 100.890625 188.871094 100.972656 187.210938 100.972656 C 185.554688 100.972656 183.898438 100.890625 182.25 100.730469 C 180.597656 100.566406 178.960938 100.324219 177.335938 100 C 175.710938 99.675781 174.101562 99.273438 172.515625 98.792969 C 170.929688 98.3125 169.371094 97.753906 167.839844 97.121094 C 166.304688 96.484375 164.808594 95.777344 163.347656 94.996094 C 161.886719 94.214844 160.464844 93.363281 159.085938 92.441406 C 157.707031 91.519531 156.378906 90.535156 155.09375 89.480469 C 153.8125 88.429688 152.585938 87.316406 151.414062 86.144531 C 150.242188 84.972656 149.128906 83.746094 148.078125 82.464844 C 147.027344 81.183594 146.039062 79.851562 145.117188 78.472656 C 144.199219 77.09375 143.347656 75.675781 142.5625 74.210938 C 141.78125 72.75 141.074219 71.253906 140.441406 69.722656 C 139.804688 68.191406 139.246094 66.628906 138.765625 65.042969 C 138.285156 63.457031 137.882812 61.851562 137.558594 60.222656 C 137.234375 58.597656 136.992188 56.960938 136.832031 55.308594 C 136.667969 53.660156 136.585938 52.007812 136.585938 50.347656 C 136.585938 48.691406 136.667969 47.035156 136.832031 45.386719 C 136.992188 43.734375 137.234375 42.097656 137.558594 40.472656 C 137.882812 38.84375 138.285156 37.238281 138.765625 35.652344 C 139.246094 34.066406 139.804688 32.507812 140.441406 30.976562 C 141.074219 29.441406 141.78125 27.945312 142.5625 26.484375 C 143.347656 25.019531 144.199219 23.601562 145.117188 22.222656 C 146.039062 20.84375 147.027344 19.511719 148.078125 18.230469 C 149.128906 16.949219 150.242188 15.722656 151.414062 14.550781 C 152.585938 13.378906 153.8125 12.265625 155.09375 11.214844 C 156.378906 10.164062 157.707031 9.175781 159.085938 8.253906 C 160.464844 7.332031 161.886719 6.484375 163.347656 5.699219 C 164.808594 4.917969 166.304688 4.210938 167.839844 3.578125 C 169.371094 2.941406 170.929688 2.382812 172.515625 1.902344 C 174.101562 1.421875 175.710938 1.019531 177.335938 0.695312 C 178.960938 0.371094 180.597656 0.128906 182.25 -0.03125 C 183.898438 -0.195312 185.554688 -0.277344 187.210938 -0.277344 C 188.871094 -0.277344 190.523438 -0.195312 192.171875 -0.03125 C 193.824219 0.128906 195.460938 0.371094 197.089844 0.695312 C 198.714844 1.019531 200.320312 1.421875 201.90625 1.902344 C 203.492188 2.382812 205.054688 2.941406 206.585938 3.578125 C 208.117188 4.210938 209.613281 4.917969 211.074219 5.699219 C 212.539062 6.484375 213.957031 7.332031 215.335938 8.253906 C 216.714844 9.175781 218.046875 10.164062 219.328125 11.214844 C 220.609375 12.265625 221.835938 13.378906 223.007812 14.550781 C 224.179688 15.722656 225.292969 16.949219 226.34375 18.230469 C 227.398438 19.511719 228.382812 20.84375 229.304688 22.222656 C 230.226562 23.601562 231.078125 25.019531 231.859375 26.484375 C 232.640625 27.945312 233.347656 29.441406 233.984375 30.976562 C 234.617188 32.507812 235.175781 34.066406 235.65625 35.652344 C 236.136719 37.238281 236.539062 38.84375 236.863281 40.472656 C 237.1875 42.097656 237.429688 43.734375 237.59375 45.386719 C 237.753906 47.035156 237.835938 48.691406 237.835938 50.347656 Z M 237.835938 50.347656 " fill-opacity="1" fill-rule="nonzero"/></g><g clip-path="url(#290bb95ed4)"><path fill="#000000" d="M 187.585938 101.722656 C 159.410156 101.722656 136.585938 78.742188 136.585938 50.722656 C 136.585938 22.703125 159.410156 -0.277344 187.585938 -0.277344 C 215.761719 -0.277344 238.585938 22.546875 238.585938 50.722656 C 238.585938 78.898438 215.605469 101.722656 187.585938 101.722656 Z M 187.585938 2.871094 C 161.140625 2.871094 139.734375 24.277344 139.734375 50.722656 C 139.734375 77.167969 161.140625 98.574219 187.585938 98.574219 C 214.03125 98.574219 235.4375 77.167969 235.4375 50.722656 C 235.4375 24.277344 213.875 2.871094 187.585938 2.871094 Z M 187.585938 2.871094 " fill-opacity="1" fill-rule="nonzero"/></g><g clip-path="url(#e85f23cf70)"><path fill="#ffffff" d="M 374.914062 50.625 C 374.914062 52.28125 374.832031 53.9375 374.667969 55.585938 C 374.507812 57.238281 374.265625 58.875 373.941406 60.5 C 373.617188 62.128906 373.214844 63.734375 372.734375 65.320312 C 372.253906 66.90625 371.695312 68.464844 371.058594 70 C 370.425781 71.53125 369.71875 73.027344 368.9375 74.488281 C 368.152344 75.953125 367.300781 77.371094 366.382812 78.75 C 365.460938 80.128906 364.472656 81.460938 363.421875 82.742188 C 362.371094 84.023438 361.257812 85.25 360.085938 86.421875 C 358.914062 87.59375 357.6875 88.707031 356.40625 89.757812 C 355.121094 90.808594 353.792969 91.796875 352.414062 92.71875 C 351.035156 93.640625 349.613281 94.492188 348.152344 95.273438 C 346.691406 96.054688 345.195312 96.761719 343.660156 97.394531 C 342.128906 98.03125 340.570312 98.589844 338.984375 99.070312 C 337.398438 99.550781 335.789062 99.953125 334.164062 100.277344 C 332.539062 100.601562 330.902344 100.84375 329.25 101.007812 C 327.601562 101.167969 325.945312 101.25 324.289062 101.25 C 322.628906 101.25 320.976562 101.167969 319.328125 101.007812 C 317.675781 100.84375 316.039062 100.601562 314.410156 100.277344 C 312.785156 99.953125 311.179688 99.550781 309.59375 99.070312 C 308.007812 98.589844 306.445312 98.03125 304.914062 97.394531 C 303.382812 96.761719 301.886719 96.054688 300.425781 95.273438 C 298.960938 94.492188 297.542969 93.640625 296.164062 92.71875 C 294.785156 91.796875 293.453125 90.808594 292.171875 89.757812 C 290.890625 88.707031 289.664062 87.59375 288.492188 86.421875 C 287.320312 85.25 286.207031 84.023438 285.15625 82.742188 C 284.101562 81.460938 283.117188 80.128906 282.195312 78.75 C 281.273438 77.371094 280.421875 75.953125 279.640625 74.488281 C 278.859375 73.027344 278.152344 71.53125 277.515625 70 C 276.882812 68.464844 276.324219 66.90625 275.84375 65.320312 C 275.363281 63.734375 274.960938 62.128906 274.636719 60.5 C 274.3125 58.875 274.070312 57.238281 273.90625 55.585938 C 273.746094 53.9375 273.664062 52.28125 273.664062 50.625 C 273.664062 48.96875 273.746094 47.3125 273.90625 45.664062 C 274.070312 44.011719 274.3125 42.375 274.636719 40.75 C 274.960938 39.121094 275.363281 37.515625 275.84375 35.929688 C 276.324219 34.34375 276.882812 32.785156 277.515625 31.25 C 278.152344 29.71875 278.859375 28.222656 279.640625 26.761719 C 280.421875 25.296875 281.273438 23.878906 282.195312 22.5 C 283.117188 21.121094 284.101562 19.789062 285.15625 18.507812 C 286.207031 17.226562 287.320312 16 288.492188 14.828125 C 289.664062 13.65625 290.890625 12.542969 292.171875 11.492188 C 293.453125 10.441406 294.785156 9.453125 296.164062 8.53125 C 297.542969 7.609375 298.960938 6.757812 300.425781 5.976562 C 301.886719 5.195312 303.382812 4.488281 304.914062 3.855469 C 306.445312 3.21875 308.007812 2.660156 309.59375 2.179688 C 311.179688 1.699219 312.785156 1.296875 314.410156 0.972656 C 316.039062 0.648438 317.675781 0.40625 319.328125 0.242188 C 320.976562 0.0820312 322.628906 0 324.289062 0 C 325.945312 0 327.601562 0.0820312 329.25 0.242188 C 330.902344 0.40625 332.539062 0.648438 334.164062 0.972656 C 335.789062 1.296875 337.398438 1.699219 338.984375 2.179688 C 340.570312 2.660156 342.128906 3.21875 343.660156 3.855469 C 345.195312 4.488281 346.691406 5.195312 348.152344 5.976562 C 349.613281 6.757812 351.035156 7.609375 352.414062 8.53125 C 353.792969 9.453125 355.121094 10.441406 356.40625 11.492188 C 357.6875 12.542969 358.914062 13.65625 360.085938 14.828125 C 361.257812 16 362.371094 17.226562 363.421875 18.507812 C 364.472656 19.789062 365.460938 21.121094 366.382812 22.5 C 367.300781 23.878906 368.152344 25.296875 368.9375 26.761719 C 369.71875 28.222656 370.425781 29.71875 371.058594 31.25 C 371.695312 32.785156 372.253906 34.34375 372.734375 35.929688 C 373.214844 37.515625 373.617188 39.121094 373.941406 40.75 C 374.265625 42.375 374.507812 44.011719 374.667969 45.664062 C 374.832031 47.3125 374.914062 48.96875 374.914062 50.625 Z M 374.914062 50.625 " fill-opacity="1" fill-rule="nonzero"/></g><g clip-path="url(#72ee9fc60e)"><path fill="#000000" d="M 323.914062 102 C 295.738281 102 272.914062 79.019531 272.914062 51 C 272.914062 22.980469 295.738281 0 323.914062 0 C 352.089844 0 374.914062 22.824219 374.914062 51 C 374.914062 79.175781 351.933594 102 323.914062 102 Z M 323.914062 3.148438 C 297.46875 3.148438 276.0625 24.554688 276.0625 51 C 276.0625 77.445312 297.46875 98.851562 323.914062 98.851562 C 350.359375 98.851562 371.765625 77.445312 371.765625 51 C 371.765625 24.554688 350.199219 3.148438 323.914062 3.148438 Z M 323.914062 3.148438 " fill-opacity="1" fill-rule="nonzero"/></g><g clip-path="url(#bacfff2b34)"><path fill="#ffffff" d="M 101.3125 323.796875 C 101.3125 325.457031 101.230469 327.109375 101.070312 328.761719 C 100.90625 330.410156 100.664062 332.046875 100.339844 333.675781 C 100.015625 335.300781 99.613281 336.90625 99.132812 338.492188 C 98.652344 340.082031 98.09375 341.640625 97.460938 343.171875 C 96.824219 344.703125 96.117188 346.199219 95.335938 347.664062 C 94.554688 349.125 93.703125 350.546875 92.78125 351.925781 C 91.859375 353.300781 90.875 354.632812 89.820312 355.914062 C 88.769531 357.195312 87.660156 358.421875 86.484375 359.59375 C 85.3125 360.769531 84.085938 361.878906 82.804688 362.933594 C 81.523438 363.984375 80.191406 364.96875 78.8125 365.890625 C 77.4375 366.8125 76.015625 367.664062 74.554688 368.445312 C 73.089844 369.226562 71.59375 369.933594 70.0625 370.570312 C 68.53125 371.203125 66.972656 371.761719 65.382812 372.242188 C 63.796875 372.726562 62.191406 373.128906 60.566406 373.449219 C 58.9375 373.773438 57.300781 374.015625 55.652344 374.179688 C 54 374.34375 52.347656 374.421875 50.6875 374.421875 C 49.03125 374.421875 47.375 374.34375 45.726562 374.179688 C 44.078125 374.015625 42.4375 373.773438 40.8125 373.449219 C 39.1875 373.128906 37.578125 372.726562 35.992188 372.242188 C 34.40625 371.761719 32.847656 371.203125 31.316406 370.570312 C 29.785156 369.933594 28.285156 369.226562 26.824219 368.445312 C 25.363281 367.664062 23.941406 366.8125 22.5625 365.890625 C 21.183594 364.96875 19.855469 363.984375 18.574219 362.933594 C 17.289062 361.878906 16.0625 360.769531 14.890625 359.59375 C 13.71875 358.421875 12.605469 357.195312 11.554688 355.914062 C 10.503906 354.632812 9.515625 353.300781 8.59375 351.925781 C 7.675781 350.546875 6.824219 349.125 6.042969 347.664062 C 5.261719 346.199219 4.550781 344.703125 3.917969 343.171875 C 3.28125 341.640625 2.726562 340.082031 2.242188 338.492188 C 1.761719 336.90625 1.359375 335.300781 1.035156 333.675781 C 0.714844 332.046875 0.46875 330.410156 0.308594 328.761719 C 0.144531 327.109375 0.0625 325.457031 0.0625 323.796875 C 0.0625 322.140625 0.144531 320.484375 0.308594 318.835938 C 0.46875 317.1875 0.714844 315.546875 1.035156 313.921875 C 1.359375 312.296875 1.761719 310.6875 2.242188 309.101562 C 2.726562 307.515625 3.28125 305.957031 3.917969 304.425781 C 4.550781 302.894531 5.261719 301.394531 6.042969 299.933594 C 6.824219 298.472656 7.675781 297.050781 8.59375 295.671875 C 9.515625 294.292969 10.503906 292.964844 11.554688 291.683594 C 12.605469 290.402344 13.71875 289.171875 14.890625 288 C 16.0625 286.828125 17.289062 285.714844 18.574219 284.664062 C 19.855469 283.613281 21.183594 282.625 22.5625 281.707031 C 23.941406 280.785156 25.363281 279.933594 26.824219 279.152344 C 28.285156 278.371094 29.785156 277.660156 31.316406 277.027344 C 32.847656 276.390625 34.40625 275.835938 35.992188 275.351562 C 37.578125 274.871094 39.1875 274.46875 40.8125 274.144531 C 42.4375 273.824219 44.078125 273.578125 45.726562 273.417969 C 47.375 273.253906 49.03125 273.171875 50.6875 273.171875 C 52.347656 273.171875 54 273.253906 55.652344 273.417969 C 57.300781 273.578125 58.9375 273.824219 60.566406 274.144531 C 62.191406 274.46875 63.796875 274.871094 65.382812 275.351562 C 66.972656 275.835938 68.53125 276.390625 70.0625 277.027344 C 71.59375 277.660156 73.089844 278.371094 74.554688 279.152344 C 76.015625 279.933594 77.4375 280.785156 78.8125 281.707031 C 80.191406 282.625 81.523438 283.613281 82.804688 284.664062 C 84.085938 285.714844 85.3125 286.828125 86.484375 288 C 87.660156 289.171875 88.769531 290.402344 89.820312 291.683594 C 90.875 292.964844 91.859375 294.292969 92.78125 295.671875 C 93.703125 297.050781 94.554688 298.472656 95.335938 299.933594 C 96.117188 301.394531 96.824219 302.894531 97.460938 304.425781 C 98.09375 305.957031 98.652344 307.515625 99.132812 309.101562 C 99.613281 310.6875 100.015625 312.296875 100.339844 313.921875 C 100.664062 315.546875 100.90625 317.1875 101.070312 318.835938 C 101.230469 320.484375 101.3125 322.140625 101.3125 323.796875 Z M 101.3125 323.796875 " fill-opacity="1" fill-rule="nonzero"/></g><g clip-path="url(#675596e7db)"><path fill="#000000" d="M 51.0625 375.171875 C 22.886719 375.171875 0.0625 352.191406 0.0625 324.171875 C 0.0625 296.15625 22.886719 273.171875 51.0625 273.171875 C 79.238281 273.171875 102.0625 295.996094 102.0625 324.171875 C 102.0625 352.347656 79.082031 375.171875 51.0625 375.171875 Z M 51.0625 276.320312 C 24.621094 276.320312 3.210938 297.730469 3.210938 324.171875 C 3.210938 350.617188 24.621094 372.023438 51.0625 372.023438 C 77.507812 372.023438 98.914062 350.617188 98.914062 324.171875 C 98.914062 297.730469 77.351562 276.320312 51.0625 276.320312 Z M 51.0625 276.320312 " fill-opacity="1" fill-rule="nonzero"/></g><g clip-path="url(#c6e4ddb94e)"><path fill="#ffffff" d="M 237.898438 323.519531 C 237.898438 325.179688 237.820312 326.832031 237.65625 328.484375 C 237.492188 330.132812 237.25 331.773438 236.925781 333.398438 C 236.605469 335.023438 236.203125 336.628906 235.71875 338.21875 C 235.238281 339.804688 234.679688 341.363281 234.046875 342.894531 C 233.414062 344.425781 232.703125 345.921875 231.921875 347.386719 C 231.140625 348.847656 230.289062 350.269531 229.367188 351.648438 C 228.445312 353.027344 227.460938 354.355469 226.410156 355.636719 C 225.355469 356.917969 224.246094 358.144531 223.074219 359.320312 C 221.898438 360.492188 220.671875 361.601562 219.390625 362.65625 C 218.109375 363.707031 216.78125 364.695312 215.402344 365.613281 C 214.023438 366.535156 212.601562 367.386719 211.140625 368.167969 C 209.675781 368.949219 208.179688 369.660156 206.648438 370.292969 C 205.117188 370.925781 203.558594 371.484375 201.972656 371.964844 C 200.382812 372.449219 198.777344 372.851562 197.152344 373.171875 C 195.527344 373.496094 193.886719 373.738281 192.238281 373.902344 C 190.585938 374.066406 188.933594 374.144531 187.273438 374.144531 C 185.617188 374.144531 183.964844 374.066406 182.3125 373.902344 C 180.664062 373.738281 179.023438 373.496094 177.398438 373.171875 C 175.773438 372.851562 174.167969 372.449219 172.578125 371.964844 C 170.992188 371.484375 169.433594 370.925781 167.902344 370.292969 C 166.371094 369.660156 164.875 368.949219 163.410156 368.167969 C 161.949219 367.386719 160.527344 366.535156 159.148438 365.613281 C 157.769531 364.695312 156.441406 363.707031 155.160156 362.65625 C 153.878906 361.601562 152.652344 360.492188 151.476562 359.320312 C 150.304688 358.144531 149.195312 356.917969 148.140625 355.636719 C 147.089844 354.355469 146.101562 353.027344 145.183594 351.648438 C 144.261719 350.269531 143.410156 348.847656 142.628906 347.386719 C 141.847656 345.921875 141.136719 344.425781 140.503906 342.894531 C 139.871094 341.363281 139.3125 339.804688 138.832031 338.21875 C 138.347656 336.628906 137.945312 335.023438 137.621094 333.398438 C 137.300781 331.773438 137.054688 330.132812 136.894531 328.484375 C 136.730469 326.832031 136.648438 325.179688 136.648438 323.519531 C 136.648438 321.863281 136.730469 320.210938 136.894531 318.558594 C 137.054688 316.910156 137.300781 315.269531 137.621094 313.644531 C 137.945312 312.019531 138.347656 310.414062 138.832031 308.824219 C 139.3125 307.238281 139.871094 305.679688 140.503906 304.148438 C 141.136719 302.617188 141.847656 301.121094 142.628906 299.65625 C 143.410156 298.195312 144.261719 296.773438 145.183594 295.394531 C 146.101562 294.015625 147.089844 292.6875 148.140625 291.40625 C 149.195312 290.125 150.304688 288.898438 151.476562 287.722656 C 152.652344 286.550781 153.878906 285.441406 155.160156 284.386719 C 156.441406 283.335938 157.769531 282.347656 159.148438 281.429688 C 160.527344 280.507812 161.949219 279.65625 163.410156 278.875 C 164.875 278.09375 166.371094 277.382812 167.902344 276.75 C 169.433594 276.117188 170.992188 275.558594 172.578125 275.078125 C 174.167969 274.59375 175.773438 274.191406 177.398438 273.871094 C 179.023438 273.546875 180.664062 273.304688 182.3125 273.140625 C 183.964844 272.976562 185.617188 272.894531 187.273438 272.894531 C 188.933594 272.894531 190.585938 272.976562 192.238281 273.140625 C 193.886719 273.304688 195.527344 273.546875 197.152344 273.871094 C 198.777344 274.191406 200.382812 274.59375 201.972656 275.078125 C 203.558594 275.558594 205.117188 276.117188 206.648438 276.75 C 208.179688 277.382812 209.675781 278.09375 211.140625 278.875 C 212.601562 279.65625 214.023438 280.507812 215.402344 281.429688 C 216.78125 282.347656 218.109375 283.335938 219.390625 284.386719 C 220.671875 285.441406 221.898438 286.550781 223.074219 287.722656 C 224.246094 288.898438 225.355469 290.125 226.410156 291.40625 C 227.460938 292.6875 228.445312 294.015625 229.367188 295.394531 C 230.289062 296.773438 231.140625 298.195312 231.921875 299.65625 C 232.703125 301.121094 233.414062 302.617188 234.046875 304.148438 C 234.679688 305.679688 235.238281 307.238281 235.71875 308.824219 C 236.203125 310.414062 236.605469 312.019531 236.925781 313.644531 C 237.25 315.269531 237.492188 316.910156 237.65625 318.558594 C 237.820312 320.210938 237.898438 321.863281 237.898438 323.519531 Z M 237.898438 323.519531 " fill-opacity="1" fill-rule="nonzero"/></g><g clip-path="url(#c8c38f7a80)"><path fill="#000000" d="M 187.648438 374.894531 C 159.472656 374.894531 136.648438 351.914062 136.648438 323.894531 C 136.648438 295.878906 159.472656 272.894531 187.648438 272.894531 C 215.828125 272.894531 238.648438 295.71875 238.648438 323.894531 C 238.648438 352.074219 215.667969 374.894531 187.648438 374.894531 Z M 187.648438 276.042969 C 161.207031 276.042969 139.796875 297.453125 139.796875 323.894531 C 139.796875 350.339844 161.207031 371.75 187.648438 371.75 C 214.09375 371.75 235.503906 350.339844 235.503906 323.894531 C 235.503906 297.453125 213.9375 276.042969 187.648438 276.042969 Z M 187.648438 276.042969 " fill-opacity="1" fill-rule="nonzero"/></g><g clip-path="url(#2e3482b11a)"><path fill="#ffffff" d="M 374.976562 323.796875 C 374.976562 325.457031 374.894531 327.109375 374.734375 328.761719 C 374.570312 330.410156 374.328125 332.046875 374.003906 333.675781 C 373.679688 335.300781 373.277344 336.90625 372.796875 338.492188 C 372.316406 340.082031 371.757812 341.640625 371.125 343.171875 C 370.488281 344.703125 369.78125 346.199219 369 347.664062 C 368.21875 349.125 367.367188 350.546875 366.445312 351.925781 C 365.523438 353.300781 364.539062 354.632812 363.484375 355.914062 C 362.433594 357.195312 361.320312 358.421875 360.148438 359.59375 C 358.976562 360.769531 357.75 361.878906 356.46875 362.933594 C 355.1875 363.984375 353.855469 364.96875 352.476562 365.890625 C 351.097656 366.8125 349.679688 367.664062 348.214844 368.445312 C 346.753906 369.226562 345.257812 369.933594 343.726562 370.570312 C 342.195312 371.203125 340.632812 371.761719 339.046875 372.242188 C 337.460938 372.726562 335.855469 373.128906 334.226562 373.449219 C 332.601562 373.773438 330.964844 374.015625 329.3125 374.179688 C 327.664062 374.34375 326.011719 374.421875 324.351562 374.421875 C 322.695312 374.421875 321.039062 374.34375 319.390625 374.179688 C 317.738281 374.015625 316.101562 373.773438 314.476562 373.449219 C 312.847656 373.128906 311.242188 372.726562 309.65625 372.242188 C 308.070312 371.761719 306.511719 371.203125 304.980469 370.570312 C 303.445312 369.933594 301.949219 369.226562 300.488281 368.445312 C 299.023438 367.664062 297.605469 366.8125 296.226562 365.890625 C 294.847656 364.96875 293.515625 363.984375 292.234375 362.933594 C 290.953125 361.878906 289.726562 360.769531 288.554688 359.59375 C 287.382812 358.421875 286.269531 357.195312 285.21875 355.914062 C 284.167969 354.632812 283.179688 353.300781 282.257812 351.925781 C 281.335938 350.546875 280.484375 349.125 279.703125 347.664062 C 278.921875 346.199219 278.214844 344.703125 277.582031 343.171875 C 276.945312 341.640625 276.386719 340.082031 275.90625 338.492188 C 275.425781 336.90625 275.023438 335.300781 274.699219 333.675781 C 274.375 332.046875 274.132812 330.410156 273.972656 328.761719 C 273.808594 327.109375 273.726562 325.457031 273.726562 323.796875 C 273.726562 322.140625 273.808594 320.484375 273.972656 318.835938 C 274.132812 317.1875 274.375 315.546875 274.699219 313.921875 C 275.023438 312.296875 275.425781 310.6875 275.90625 309.101562 C 276.386719 307.515625 276.945312 305.957031 277.582031 304.425781 C 278.214844 302.894531 278.921875 301.394531 279.703125 299.933594 C 280.484375 298.472656 281.335938 297.050781 282.257812 295.671875 C 283.179688 294.292969 284.167969 292.964844 285.21875 291.683594 C 286.269531 290.402344 287.382812 289.171875 288.554688 288 C 289.726562 286.828125 290.953125 285.714844 292.234375 284.664062 C 293.515625 283.613281 294.847656 282.625 296.226562 281.707031 C 297.605469 280.785156 299.023438 279.933594 300.488281 279.152344 C 301.949219 278.371094 303.445312 277.660156 304.980469 277.027344 C 306.511719 276.390625 308.070312 275.835938 309.65625 275.351562 C 311.242188 274.871094 312.847656 274.46875 314.476562 274.144531 C 316.101562 273.824219 317.738281 273.578125 319.390625 273.417969 C 321.039062 273.253906 322.695312 273.171875 324.351562 273.171875 C 326.011719 273.171875 327.664062 273.253906 329.3125 273.417969 C 330.964844 273.578125 332.601562 273.824219 334.226562 274.144531 C 335.855469 274.46875 337.460938 274.871094 339.046875 275.351562 C 340.632812 275.835938 342.195312 276.390625 343.726562 277.027344 C 345.257812 277.660156 346.753906 278.371094 348.214844 279.152344 C 349.679688 279.933594 351.097656 280.785156 352.476562 281.707031 C 353.855469 282.625 355.1875 283.613281 356.46875 284.664062 C 357.75 285.714844 358.976562 286.828125 360.148438 288 C 361.320312 289.171875 362.433594 290.402344 363.484375 291.683594 C 364.539062 292.964844 365.523438 294.292969 366.445312 295.671875 C 367.367188 297.050781 368.21875 298.472656 369 299.933594 C 369.78125 301.394531 370.488281 302.894531 371.125 304.425781 C 371.757812 305.957031 372.316406 307.515625 372.796875 309.101562 C 373.277344 310.6875 373.679688 312.296875 374.003906 313.921875 C 374.328125 315.546875 374.570312 317.1875 374.734375 318.835938 C 374.894531 320.484375 374.976562 322.140625 374.976562 323.796875 Z M 374.976562 323.796875 " fill-opacity="1" fill-rule="nonzero"/></g><g clip-path="url(#39a067e541)"><path fill="#000000" d="M 323.976562 375.171875 C 295.800781 375.171875 272.976562 352.191406 272.976562 324.171875 C 272.976562 296.15625 295.800781 273.171875 323.976562 273.171875 C 352.152344 273.171875 374.976562 295.996094 374.976562 324.171875 C 374.976562 352.347656 351.996094 375.171875 323.976562 375.171875 Z M 323.976562 276.320312 C 297.53125 276.320312 276.125 297.730469 276.125 324.171875 C 276.125 350.617188 297.53125 372.023438 323.976562 372.023438 C 350.421875 372.023438 371.828125 350.617188 371.828125 324.171875 C 371.828125 297.730469 350.265625 276.320312 323.976562 276.320312 Z M 323.976562 276.320312 " fill-opacity="1" fill-rule="nonzero"/></g><g clip-path="url(#d404742925)"><path fill="#ffffff" d="M 101.003906 187.210938 C 101.003906 188.871094 100.921875 190.523438 100.761719 192.171875 C 100.597656 193.824219 100.355469 195.460938 100.03125 197.089844 C 99.707031 198.714844 99.304688 200.320312 98.824219 201.90625 C 98.34375 203.492188 97.785156 205.054688 97.152344 206.585938 C 96.515625 208.117188 95.808594 209.613281 95.027344 211.074219 C 94.246094 212.539062 93.394531 213.957031 92.472656 215.335938 C 91.550781 216.714844 90.566406 218.046875 89.511719 219.328125 C 88.460938 220.609375 87.351562 221.835938 86.175781 223.007812 C 85.003906 224.179688 83.777344 225.292969 82.496094 226.34375 C 81.214844 227.398438 79.882812 228.382812 78.503906 229.304688 C 77.128906 230.226562 75.707031 231.078125 74.246094 231.859375 C 72.78125 232.640625 71.285156 233.347656 69.753906 233.984375 C 68.222656 234.617188 66.664062 235.175781 65.074219 235.65625 C 63.488281 236.136719 61.882812 236.539062 60.257812 236.863281 C 58.628906 237.1875 56.992188 237.429688 55.34375 237.59375 C 53.691406 237.753906 52.039062 237.835938 50.378906 237.835938 C 48.722656 237.835938 47.066406 237.753906 45.417969 237.59375 C 43.769531 237.429688 42.128906 237.1875 40.503906 236.863281 C 38.878906 236.539062 37.269531 236.136719 35.683594 235.65625 C 34.097656 235.175781 32.539062 234.617188 31.007812 233.984375 C 29.476562 233.347656 27.976562 232.640625 26.515625 231.859375 C 25.054688 231.078125 23.632812 230.226562 22.253906 229.304688 C 20.875 228.382812 19.546875 227.398438 18.265625 226.34375 C 16.980469 225.292969 15.753906 224.179688 14.582031 223.007812 C 13.410156 221.835938 12.296875 220.609375 11.246094 219.328125 C 10.195312 218.046875 9.207031 216.714844 8.285156 215.335938 C 7.367188 213.957031 6.515625 212.539062 5.734375 211.074219 C 4.949219 209.613281 4.242188 208.117188 3.609375 206.585938 C 2.972656 205.054688 2.417969 203.492188 1.933594 201.90625 C 1.453125 200.320312 1.050781 198.714844 0.726562 197.089844 C 0.402344 195.460938 0.160156 193.824219 0 192.171875 C -0.164062 190.523438 -0.246094 188.871094 -0.246094 187.210938 C -0.246094 185.554688 -0.164062 183.898438 0 182.25 C 0.160156 180.597656 0.402344 178.960938 0.726562 177.335938 C 1.050781 175.710938 1.453125 174.101562 1.933594 172.515625 C 2.417969 170.929688 2.972656 169.371094 3.609375 167.839844 C 4.242188 166.304688 4.949219 164.808594 5.734375 163.347656 C 6.515625 161.886719 7.367188 160.464844 8.285156 159.085938 C 9.207031 157.707031 10.195312 156.378906 11.246094 155.09375 C 12.296875 153.8125 13.410156 152.585938 14.582031 151.414062 C 15.753906 150.242188 16.980469 149.128906 18.265625 148.078125 C 19.546875 147.027344 20.875 146.039062 22.253906 145.117188 C 23.632812 144.199219 25.054688 143.347656 26.515625 142.5625 C 27.976562 141.78125 29.476562 141.074219 31.007812 140.441406 C 32.539062 139.804688 34.097656 139.246094 35.683594 138.765625 C 37.269531 138.285156 38.878906 137.882812 40.503906 137.558594 C 42.128906 137.234375 43.769531 136.992188 45.417969 136.832031 C 47.066406 136.667969 48.722656 136.585938 50.378906 136.585938 C 52.039062 136.585938 53.691406 136.667969 55.34375 136.832031 C 56.992188 136.992188 58.628906 137.234375 60.257812 137.558594 C 61.882812 137.882812 63.488281 138.285156 65.074219 138.765625 C 66.664062 139.246094 68.222656 139.804688 69.753906 140.441406 C 71.285156 141.074219 72.78125 141.78125 74.246094 142.5625 C 75.707031 143.347656 77.128906 144.199219 78.503906 145.117188 C 79.882812 146.039062 81.214844 147.027344 82.496094 148.078125 C 83.777344 149.128906 85.003906 150.242188 86.175781 151.414062 C 87.351562 152.585938 88.460938 153.8125 89.511719 155.09375 C 90.566406 156.378906 91.550781 157.707031 92.472656 159.085938 C 93.394531 160.464844 94.246094 161.886719 95.027344 163.347656 C 95.808594 164.808594 96.515625 166.304688 97.152344 167.839844 C 97.785156 169.371094 98.34375 170.929688 98.824219 172.515625 C 99.304688 174.101562 99.707031 175.710938 100.03125 177.335938 C 100.355469 178.960938 100.597656 180.597656 100.761719 182.25 C 100.921875 183.898438 101.003906 185.554688 101.003906 187.210938 Z M 101.003906 187.210938 " fill-opacity="1" fill-rule="nonzero"/></g><g clip-path="url(#95688f37a8)"><path fill="#000000" d="M 50.753906 238.585938 C 22.578125 238.585938 -0.246094 215.605469 -0.246094 187.585938 C -0.246094 159.566406 22.578125 136.585938 50.753906 136.585938 C 78.929688 136.585938 101.753906 159.410156 101.753906 187.585938 C 101.753906 215.761719 78.773438 238.585938 50.753906 238.585938 Z M 50.753906 139.734375 C 24.308594 139.734375 2.902344 161.140625 2.902344 187.585938 C 2.902344 214.03125 24.308594 235.4375 50.753906 235.4375 C 77.199219 235.4375 98.605469 214.03125 98.605469 187.585938 C 98.605469 161.140625 77.042969 139.734375 50.753906 139.734375 Z M 50.753906 139.734375 " fill-opacity="1" fill-rule="nonzero"/></g><g clip-path="url(#a8e7aebf66)"><path fill="#ffffff" d="M 237.589844 186.933594 C 237.589844 188.59375 237.511719 190.246094 237.347656 191.898438 C 237.183594 193.546875 236.941406 195.183594 236.617188 196.8125 C 236.296875 198.4375 235.894531 200.042969 235.410156 201.628906 C 234.929688 203.21875 234.371094 204.777344 233.738281 206.308594 C 233.101562 207.839844 232.394531 209.335938 231.613281 210.800781 C 230.832031 212.261719 229.980469 213.683594 229.058594 215.058594 C 228.136719 216.4375 227.152344 217.769531 226.101562 219.050781 C 225.046875 220.332031 223.9375 221.558594 222.765625 222.730469 C 221.589844 223.90625 220.363281 225.015625 219.082031 226.070312 C 217.800781 227.121094 216.472656 228.105469 215.09375 229.027344 C 213.714844 229.949219 212.292969 230.800781 210.832031 231.582031 C 209.367188 232.363281 207.871094 233.070312 206.339844 233.707031 C 204.808594 234.339844 203.25 234.898438 201.664062 235.378906 C 200.074219 235.859375 198.46875 236.261719 196.84375 236.585938 C 195.21875 236.910156 193.578125 237.152344 191.929688 237.316406 C 190.277344 237.480469 188.625 237.558594 186.964844 237.558594 C 185.308594 237.558594 183.65625 237.480469 182.003906 237.316406 C 180.355469 237.152344 178.714844 236.910156 177.089844 236.585938 C 175.464844 236.261719 173.859375 235.859375 172.269531 235.378906 C 170.683594 234.898438 169.125 234.339844 167.59375 233.707031 C 166.0625 233.070312 164.5625 232.363281 163.101562 231.582031 C 161.640625 230.800781 160.21875 229.949219 158.839844 229.027344 C 157.460938 228.105469 156.132812 227.121094 154.851562 226.070312 C 153.570312 225.015625 152.339844 223.90625 151.167969 222.730469 C 149.996094 221.558594 148.886719 220.332031 147.832031 219.050781 C 146.78125 217.769531 145.792969 216.4375 144.875 215.058594 C 143.953125 213.683594 143.101562 212.261719 142.320312 210.800781 C 141.539062 209.335938 140.828125 207.839844 140.195312 206.308594 C 139.5625 204.777344 139.003906 203.21875 138.523438 201.628906 C 138.039062 200.042969 137.636719 198.4375 137.3125 196.8125 C 136.992188 195.183594 136.746094 193.546875 136.585938 191.898438 C 136.421875 190.246094 136.339844 188.59375 136.339844 186.933594 C 136.339844 185.277344 136.421875 183.621094 136.585938 181.972656 C 136.746094 180.324219 136.992188 178.683594 137.3125 177.058594 C 137.636719 175.433594 138.039062 173.824219 138.523438 172.238281 C 139.003906 170.652344 139.5625 169.09375 140.195312 167.5625 C 140.828125 166.03125 141.539062 164.53125 142.320312 163.070312 C 143.101562 161.609375 143.953125 160.1875 144.875 158.808594 C 145.792969 157.429688 146.78125 156.101562 147.832031 154.820312 C 148.886719 153.535156 149.996094 152.308594 151.167969 151.136719 C 152.339844 149.964844 153.570312 148.851562 154.851562 147.800781 C 156.132812 146.75 157.460938 145.761719 158.839844 144.839844 C 160.21875 143.921875 161.640625 143.070312 163.101562 142.289062 C 164.5625 141.507812 166.0625 140.796875 167.59375 140.164062 C 169.125 139.527344 170.683594 138.972656 172.269531 138.488281 C 173.859375 138.007812 175.464844 137.605469 177.089844 137.28125 C 178.714844 136.960938 180.355469 136.714844 182.003906 136.554688 C 183.65625 136.390625 185.308594 136.308594 186.964844 136.308594 C 188.625 136.308594 190.277344 136.390625 191.929688 136.554688 C 193.578125 136.714844 195.21875 136.960938 196.84375 137.28125 C 198.46875 137.605469 200.074219 138.007812 201.664062 138.488281 C 203.25 138.972656 204.808594 139.527344 206.339844 140.164062 C 207.871094 140.796875 209.367188 141.507812 210.832031 142.289062 C 212.292969 143.070312 213.714844 143.921875 215.09375 144.839844 C 216.472656 145.761719 217.800781 146.75 219.082031 147.800781 C 220.363281 148.851562 221.589844 149.964844 222.765625 151.136719 C 223.9375 152.308594 225.046875 153.535156 226.101562 154.820312 C 227.152344 156.101562 228.136719 157.429688 229.058594 158.808594 C 229.980469 160.1875 230.832031 161.609375 231.613281 163.070312 C 232.394531 164.53125 233.101562 166.03125 233.738281 167.5625 C 234.371094 169.09375 234.929688 170.652344 235.410156 172.238281 C 235.894531 173.824219 236.296875 175.433594 236.617188 177.058594 C 236.941406 178.683594 237.183594 180.324219 237.347656 181.972656 C 237.511719 183.621094 237.589844 185.277344 237.589844 186.933594 Z M 237.589844 186.933594 " fill-opacity="1" fill-rule="nonzero"/></g><g clip-path="url(#af3a72a7a1)"><path fill="#000000" d="M 187.339844 238.308594 C 159.164062 238.308594 136.339844 215.328125 136.339844 187.308594 C 136.339844 159.292969 159.164062 136.308594 187.339844 136.308594 C 215.515625 136.308594 238.339844 159.132812 238.339844 187.308594 C 238.339844 215.484375 215.359375 238.308594 187.339844 238.308594 Z M 187.339844 139.457031 C 160.898438 139.457031 139.488281 160.867188 139.488281 187.308594 C 139.488281 213.753906 160.898438 235.160156 187.339844 235.160156 C 213.785156 235.160156 235.195312 213.753906 235.195312 187.308594 C 235.195312 160.867188 213.628906 139.457031 187.339844 139.457031 Z M 187.339844 139.457031 " fill-opacity="1" fill-rule="nonzero"/></g><g clip-path="url(#8c947b3269)"><path fill="#ffffff" d="M 374.667969 187.210938 C 374.667969 188.871094 374.585938 190.523438 374.425781 192.171875 C 374.261719 193.824219 374.019531 195.460938 373.695312 197.089844 C 373.371094 198.714844 372.96875 200.320312 372.488281 201.90625 C 372.007812 203.492188 371.449219 205.054688 370.816406 206.585938 C 370.179688 208.117188 369.472656 209.613281 368.691406 211.074219 C 367.910156 212.539062 367.058594 213.957031 366.136719 215.335938 C 365.214844 216.714844 364.230469 218.046875 363.175781 219.328125 C 362.125 220.609375 361.011719 221.835938 359.839844 223.007812 C 358.667969 224.179688 357.441406 225.292969 356.160156 226.34375 C 354.878906 227.398438 353.546875 228.382812 352.167969 229.304688 C 350.789062 230.226562 349.371094 231.078125 347.90625 231.859375 C 346.445312 232.640625 344.949219 233.347656 343.417969 233.984375 C 341.886719 234.617188 340.324219 235.175781 338.738281 235.65625 C 337.152344 236.136719 335.546875 236.539062 333.917969 236.863281 C 332.292969 237.1875 330.65625 237.429688 329.003906 237.59375 C 327.355469 237.753906 325.703125 237.835938 324.042969 237.835938 C 322.386719 237.835938 320.730469 237.753906 319.082031 237.59375 C 317.429688 237.429688 315.792969 237.1875 314.167969 236.863281 C 312.539062 236.539062 310.933594 236.136719 309.347656 235.65625 C 307.761719 235.175781 306.203125 234.617188 304.671875 233.984375 C 303.136719 233.347656 301.640625 232.640625 300.179688 231.859375 C 298.714844 231.078125 297.296875 230.226562 295.917969 229.304688 C 294.539062 228.382812 293.207031 227.398438 291.925781 226.34375 C 290.644531 225.292969 289.417969 224.179688 288.246094 223.007812 C 287.074219 221.835938 285.960938 220.609375 284.910156 219.328125 C 283.859375 218.046875 282.871094 216.714844 281.949219 215.335938 C 281.027344 213.957031 280.175781 212.539062 279.394531 211.074219 C 278.613281 209.613281 277.90625 208.117188 277.273438 206.585938 C 276.636719 205.054688 276.078125 203.492188 275.597656 201.90625 C 275.117188 200.320312 274.714844 198.714844 274.390625 197.089844 C 274.066406 195.460938 273.824219 193.824219 273.660156 192.171875 C 273.5 190.523438 273.417969 188.871094 273.417969 187.210938 C 273.417969 185.554688 273.5 183.898438 273.660156 182.25 C 273.824219 180.597656 274.066406 178.960938 274.390625 177.335938 C 274.714844 175.710938 275.117188 174.101562 275.597656 172.515625 C 276.078125 170.929688 276.636719 169.371094 277.273438 167.839844 C 277.90625 166.304688 278.613281 164.808594 279.394531 163.347656 C 280.175781 161.886719 281.027344 160.464844 281.949219 159.085938 C 282.871094 157.707031 283.859375 156.378906 284.910156 155.09375 C 285.960938 153.8125 287.074219 152.585938 288.246094 151.414062 C 289.417969 150.242188 290.644531 149.128906 291.925781 148.078125 C 293.207031 147.027344 294.539062 146.039062 295.917969 145.117188 C 297.296875 144.199219 298.714844 143.347656 300.179688 142.5625 C 301.640625 141.78125 303.136719 141.074219 304.671875 140.441406 C 306.203125 139.804688 307.761719 139.246094 309.347656 138.765625 C 310.933594 138.285156 312.539062 137.882812 314.167969 137.558594 C 315.792969 137.234375 317.429688 136.992188 319.082031 136.832031 C 320.730469 136.667969 322.386719 136.585938 324.042969 136.585938 C 325.703125 136.585938 327.355469 136.667969 329.003906 136.832031 C 330.65625 136.992188 332.292969 137.234375 333.917969 137.558594 C 335.546875 137.882812 337.152344 138.285156 338.738281 138.765625 C 340.324219 139.246094 341.886719 139.804688 343.417969 140.441406 C 344.949219 141.074219 346.445312 141.78125 347.90625 142.5625 C 349.371094 143.347656 350.789062 144.199219 352.167969 145.117188 C 353.546875 146.039062 354.878906 147.027344 356.160156 148.078125 C 357.441406 149.128906 358.667969 150.242188 359.839844 151.414062 C 361.011719 152.585938 362.125 153.8125 363.175781 155.09375 C 364.230469 156.378906 365.214844 157.707031 366.136719 159.085938 C 367.058594 160.464844 367.910156 161.886719 368.691406 163.347656 C 369.472656 164.808594 370.179688 166.304688 370.816406 167.839844 C 371.449219 169.371094 372.007812 170.929688 372.488281 172.515625 C 372.96875 174.101562 373.371094 175.710938 373.695312 177.335938 C 374.019531 178.960938 374.261719 180.597656 374.425781 182.25 C 374.585938 183.898438 374.667969 185.554688 374.667969 187.210938 Z M 374.667969 187.210938 " fill-opacity="1" fill-rule="nonzero"/></g><g clip-path="url(#2bde66fcbb)"><path fill="#000000" d="M 323.667969 238.585938 C 295.492188 238.585938 272.667969 215.605469 272.667969 187.585938 C 272.667969 159.566406 295.492188 136.585938 323.667969 136.585938 C 351.84375 136.585938 374.667969 159.410156 374.667969 187.585938 C 374.667969 215.761719 351.6875 238.585938 323.667969 238.585938 Z M 323.667969 139.734375 C 297.222656 139.734375 275.816406 161.140625 275.816406 187.585938 C 275.816406 214.03125 297.222656 235.4375 323.667969 235.4375 C 350.113281 235.4375 371.519531 214.03125 371.519531 187.585938 C 371.519531 161.140625 349.957031 139.734375 323.667969 139.734375 Z M 323.667969 139.734375 " fill-opacity="1" fill-rule="nonzero"/></g><path stroke-linecap="butt" transform="matrix(0.75, 0, 0, 0.75, 101.027986, 47.359662)" fill="none" stroke-linejoin="miter" d="M -0.000856154 3.999617 L 49.171022 3.999617 " stroke="#000000" stroke-width="8" stroke-opacity="1" stroke-miterlimit="4"/><path stroke-linecap="butt" transform="matrix(0.75, 0, 0, 0.75, 101.273026, 183.946306)" fill="none" stroke-linejoin="miter" d="M 0.000548867 3.998676 L 49.172427 3.998676 " stroke="#000000" stroke-width="8" stroke-opacity="1" stroke-miterlimit="4"/><path stroke-linecap="butt" transform="matrix(0.75, 0, 0, 0.75, 101.027986, 321.086638)" fill="none" stroke-linejoin="miter" d="M -0.000856154 3.999066 L 49.171022 3.999066 " stroke="#000000" stroke-width="8" stroke-opacity="1" stroke-miterlimit="4"/><path stroke-linecap="butt" transform="matrix(0.75, 0, 0, 0.75, 237.923281, 321.086638)" fill="none" stroke-linejoin="miter" d="M -0.0018745 3.999066 L 49.175212 3.999066 " stroke="#000000" stroke-width="8" stroke-opacity="1" stroke-miterlimit="4"/><path stroke-linecap="butt" transform="matrix(0.539558, 0.520939, -0.520939, 0.539558, 226.954134, 81.339883)" fill="none" stroke-linejoin="miter" d="M 0.00242999 4.001147 L 127.04347 3.99951 " stroke="#000000" stroke-width="8" stroke-opacity="1" stroke-miterlimit="4"/><path stroke-linecap="butt" transform="matrix(0.53033, -0.53033, 0.53033, 0.53033, 84.361617, 286.209591)" fill="none" stroke-linejoin="miter" d="M 0.000299809 4.002412 L 127.047509 3.998729 " stroke="#000000" stroke-width="8" stroke-opacity="1" stroke-miterlimit="4"/><g fill="#000000" fill-opacity="1"><g transform="translate(157.955751, 75.498245)"><g><path d="M 12.3125 -47.953125 L 12.3125 -17.390625 L 21.875 -26.484375 C 22.675781 -27.191406 23.078125 -27.835938 23.078125 -28.421875 C 23.078125 -28.828125 22.863281 -29.160156 22.4375 -29.421875 C 22.007812 -29.691406 21.394531 -29.828125 20.59375 -29.828125 L 20.59375 -31.03125 L 34.3125 -31.03125 L 34.3125 -29.828125 L 33.84375 -29.828125 C 31.75 -29.828125 30 -29.457031 28.59375 -28.71875 C 27.1875 -27.988281 25.566406 -26.753906 23.734375 -25.015625 L 17.515625 -19.125 L 25.875 -8.296875 C 27.4375 -6.285156 28.738281 -4.78125 29.78125 -3.78125 C 30.832031 -2.78125 31.804688 -2.097656 32.703125 -1.734375 C 33.597656 -1.378906 34.601562 -1.203125 35.71875 -1.203125 L 35.71875 0 L 20.796875 0 L 20.796875 -1.203125 C 22.222656 -1.296875 22.9375 -1.71875 22.9375 -2.46875 C 22.9375 -3.226562 22.488281 -4.125 21.59375 -5.15625 L 12.4375 -17.046875 L 12.3125 -17.046875 L 12.3125 -7.09375 C 12.3125 -5.4375 12.488281 -4.1875 12.84375 -3.34375 C 13.195312 -2.5 13.726562 -1.929688 14.4375 -1.640625 C 15.15625 -1.347656 16.179688 -1.203125 17.515625 -1.203125 L 17.515625 0 L 1.734375 0 L 1.734375 -1.203125 C 3.023438 -1.203125 4.023438 -1.347656 4.734375 -1.640625 C 5.453125 -1.929688 5.976562 -2.488281 6.3125 -3.3125 C 6.65625 -4.132812 6.828125 -5.394531 6.828125 -7.09375 L 6.828125 -39.0625 C 6.828125 -40.613281 6.578125 -41.722656 6.078125 -42.390625 C 5.585938 -43.066406 4.742188 -43.40625 3.546875 -43.40625 C 3.316406 -43.40625 3.066406 -43.378906 2.796875 -43.328125 C 2.535156 -43.285156 2.316406 -43.222656 2.140625 -43.140625 L 1.734375 -44.265625 L 11.171875 -47.953125 Z M 12.3125 -47.953125 "/></g></g></g><g fill="#000000" fill-opacity="1"><g transform="translate(194.866401, 75.498245)"><g><path d="M 9.09375 -48.15625 C 10.070312 -48.15625 10.894531 -47.816406 11.5625 -47.140625 C 12.238281 -46.472656 12.578125 -45.671875 12.578125 -44.734375 C 12.578125 -43.753906 12.238281 -42.929688 11.5625 -42.265625 C 10.894531 -41.597656 10.070312 -41.265625 9.09375 -41.265625 C 8.15625 -41.265625 7.351562 -41.597656 6.6875 -42.265625 C 6.019531 -42.929688 5.6875 -43.753906 5.6875 -44.734375 C 5.6875 -45.671875 6.019531 -46.472656 6.6875 -47.140625 C 7.351562 -47.816406 8.15625 -48.15625 9.09375 -48.15625 Z M 12.03125 -6.953125 C 12.03125 -4.765625 12.382812 -3.269531 13.09375 -2.46875 C 13.8125 -1.664062 14.972656 -1.242188 16.578125 -1.203125 L 16.578125 0 L 1.53125 0 L 1.53125 -1.203125 C 3.363281 -1.203125 4.65625 -1.625 5.40625 -2.46875 C 6.164062 -3.320312 6.546875 -4.863281 6.546875 -7.09375 L 6.546875 -23.265625 C 6.546875 -24.472656 6.28125 -25.457031 5.75 -26.21875 C 5.21875 -26.976562 4.394531 -27.359375 3.28125 -27.359375 C 2.789062 -27.359375 2.34375 -27.242188 1.9375 -27.015625 L 1.53125 -28.21875 L 10.828125 -31.765625 L 12.03125 -31.765625 Z M 12.03125 -6.953125 "/></g></g></g><g fill="#000000" fill-opacity="1"><g transform="translate(5.880416, 78.499409)"><g><path d="M 18.0625 -44.734375 C 15.34375 -44.648438 13.984375 -43.671875 13.984375 -41.796875 C 13.984375 -41.171875 14.09375 -40.5 14.3125 -39.78125 C 14.53125 -39.070312 15.039062 -37.601562 15.84375 -35.375 L 24.203125 -12.109375 L 24.34375 -12.109375 L 31.703125 -32.5625 L 29.09375 -39.390625 C 28.550781 -40.773438 28.066406 -41.8125 27.640625 -42.5 C 27.222656 -43.1875 26.65625 -43.707031 25.9375 -44.0625 C 25.226562 -44.425781 24.226562 -44.648438 22.9375 -44.734375 L 22.9375 -45.9375 L 41.1875 -45.9375 L 41.1875 -44.734375 C 39.8125 -44.597656 38.707031 -44.296875 37.875 -43.828125 C 37.050781 -43.367188 36.640625 -42.582031 36.640625 -41.46875 C 36.640625 -40.082031 37.039062 -38.410156 37.84375 -36.453125 L 47.21875 -12.109375 L 56.046875 -36.984375 C 56.535156 -38.316406 56.84375 -39.257812 56.96875 -39.8125 C 57.101562 -40.375 57.171875 -40.988281 57.171875 -41.65625 C 57.171875 -43.664062 55.566406 -44.691406 52.359375 -44.734375 L 52.359375 -45.9375 L 65.671875 -45.9375 L 65.671875 -44.734375 C 64.148438 -44.691406 62.921875 -44.066406 61.984375 -42.859375 C 61.054688 -41.660156 60.007812 -39.410156 58.84375 -36.109375 L 45.75 0.9375 L 44.46875 0.9375 L 33.296875 -28.421875 L 22.609375 0.9375 L 21.53125 0.9375 L 7.015625 -38.453125 C 6.304688 -40.367188 5.671875 -41.75 5.109375 -42.59375 C 4.554688 -43.445312 3.96875 -43.992188 3.34375 -44.234375 C 2.71875 -44.484375 1.757812 -44.648438 0.46875 -44.734375 L 0.46875 -45.9375 L 18.0625 -45.9375 Z M 18.0625 -44.734375 "/></g></g></g><g fill="#000000" fill-opacity="1"><g transform="translate(72.078852, 78.499409)"><g><path d="M 9.09375 -48.15625 C 10.070312 -48.15625 10.894531 -47.816406 11.5625 -47.140625 C 12.238281 -46.472656 12.578125 -45.671875 12.578125 -44.734375 C 12.578125 -43.753906 12.238281 -42.929688 11.5625 -42.265625 C 10.894531 -41.597656 10.070312 -41.265625 9.09375 -41.265625 C 8.15625 -41.265625 7.351562 -41.597656 6.6875 -42.265625 C 6.019531 -42.929688 5.6875 -43.753906 5.6875 -44.734375 C 5.6875 -45.671875 6.019531 -46.472656 6.6875 -47.140625 C 7.351562 -47.816406 8.15625 -48.15625 9.09375 -48.15625 Z M 12.03125 -6.953125 C 12.03125 -4.765625 12.382812 -3.269531 13.09375 -2.46875 C 13.8125 -1.664062 14.972656 -1.242188 16.578125 -1.203125 L 16.578125 0 L 1.53125 0 L 1.53125 -1.203125 C 3.363281 -1.203125 4.65625 -1.625 5.40625 -2.46875 C 6.164062 -3.320312 6.546875 -4.863281 6.546875 -7.09375 L 6.546875 -23.265625 C 6.546875 -24.472656 6.28125 -25.457031 5.75 -26.21875 C 5.21875 -26.976562 4.394531 -27.359375 3.28125 -27.359375 C 2.789062 -27.359375 2.34375 -27.242188 1.9375 -27.015625 L 1.53125 -28.21875 L 10.828125 -31.765625 L 12.03125 -31.765625 Z M 12.03125 -6.953125 "/></g></g></g><g fill="#000000" fill-opacity="1"><g transform="translate(288.195734, 76.03061)"><g><path d="M 12.28125 -48.671875 L 12.28125 -7.125 C 12.28125 -4.863281 12.609375 -3.3125 13.265625 -2.46875 C 13.921875 -1.632812 15.109375 -1.21875 16.828125 -1.21875 L 16.828125 0 L 1.5625 0 L 1.5625 -1.21875 C 2.832031 -1.21875 3.828125 -1.351562 4.546875 -1.625 C 5.273438 -1.894531 5.816406 -2.457031 6.171875 -3.3125 C 6.535156 -4.175781 6.71875 -5.445312 6.71875 -7.125 L 6.71875 -39.234375 C 6.71875 -42.265625 5.65625 -43.78125 3.53125 -43.78125 C 2.9375 -43.78125 2.414062 -43.664062 1.96875 -43.4375 L 1.5625 -44.59375 L 11.0625 -48.671875 Z M 12.28125 -48.671875 "/></g></g></g><g fill="#000000" fill-opacity="1"><g transform="translate(306.589581, 76.03061)"><g><path d="M 11.875 -32.234375 L 11.875 -25.796875 C 15.769531 -30.085938 19.300781 -32.234375 22.46875 -32.234375 C 24.550781 -32.234375 26.257812 -31.65625 27.59375 -30.5 C 28.925781 -29.351562 29.84375 -27.648438 30.34375 -25.390625 C 33.78125 -29.953125 37.535156 -32.234375 41.609375 -32.234375 C 44.546875 -32.234375 46.660156 -31.179688 47.953125 -29.078125 C 49.242188 -26.972656 49.890625 -24.539062 49.890625 -21.78125 L 49.890625 -7.1875 C 49.890625 -5.46875 50.054688 -4.191406 50.390625 -3.359375 C 50.734375 -2.523438 51.265625 -1.957031 51.984375 -1.65625 C 52.710938 -1.363281 53.734375 -1.21875 55.046875 -1.21875 L 55.046875 0 L 39.03125 0 L 39.03125 -1.21875 C 40.425781 -1.21875 41.484375 -1.351562 42.203125 -1.625 C 42.929688 -1.894531 43.46875 -2.457031 43.8125 -3.3125 C 44.15625 -4.175781 44.328125 -5.515625 44.328125 -7.328125 L 44.328125 -22.40625 C 44.328125 -23.988281 43.863281 -25.34375 42.9375 -26.46875 C 42.007812 -27.601562 40.660156 -28.171875 38.890625 -28.171875 C 37.441406 -28.171875 35.957031 -27.785156 34.4375 -27.015625 C 32.925781 -26.242188 31.671875 -25.222656 30.671875 -23.953125 L 30.890625 -19.953125 L 30.890625 -7.1875 C 30.890625 -5.46875 31.066406 -4.191406 31.421875 -3.359375 C 31.785156 -2.523438 32.316406 -1.957031 33.015625 -1.65625 C 33.722656 -1.363281 34.734375 -1.21875 36.046875 -1.21875 L 36.046875 0 L 19.953125 0 L 19.953125 -1.21875 C 21.359375 -1.21875 22.429688 -1.351562 23.171875 -1.625 C 23.921875 -1.894531 24.460938 -2.445312 24.796875 -3.28125 C 25.140625 -4.125 25.3125 -5.425781 25.3125 -7.1875 L 25.3125 -21.859375 C 25.3125 -23.441406 24.859375 -24.890625 23.953125 -26.203125 C 23.054688 -27.515625 21.703125 -28.171875 19.890625 -28.171875 C 18.710938 -28.171875 17.421875 -27.828125 16.015625 -27.140625 C 14.617188 -26.460938 13.238281 -25.425781 11.875 -24.03125 L 11.875 -7.1875 C 11.875 -4.882812 12.234375 -3.3125 12.953125 -2.46875 C 13.679688 -1.632812 14.863281 -1.21875 16.5 -1.21875 L 16.90625 -1.21875 L 16.90625 0 L 1.015625 0 L 1.015625 -1.21875 C 2.421875 -1.21875 3.484375 -1.351562 4.203125 -1.625 C 4.929688 -1.894531 5.460938 -2.457031 5.796875 -3.3125 C 6.140625 -4.175781 6.3125 -5.46875 6.3125 -7.1875 L 6.3125 -23.28125 C 6.3125 -24.59375 6.039062 -25.675781 5.5 -26.53125 C 4.957031 -27.394531 4.097656 -27.828125 2.921875 -27.828125 C 2.242188 -27.828125 1.609375 -27.710938 1.015625 -27.484375 L 0.546875 -28.640625 L 10.71875 -32.234375 Z M 11.875 -32.234375 "/></g></g></g><g fill="#000000" fill-opacity="1"><g transform="translate(11.012187, 209.536712)"><g><path d="M 39.984375 -36.3125 L 38.828125 -36.3125 C 38.367188 -38.894531 37.53125 -40.804688 36.3125 -42.046875 C 35.09375 -43.296875 33.394531 -43.921875 31.21875 -43.921875 L 16.5 -43.921875 L 16.5 -25.921875 L 28.578125 -25.921875 C 30.742188 -25.921875 32.28125 -26.460938 33.1875 -27.546875 C 34.09375 -28.640625 34.566406 -30.363281 34.609375 -32.71875 L 35.84375 -32.71875 L 35.84375 -16.296875 L 34.609375 -16.296875 C 34.609375 -18.640625 34.15625 -20.378906 33.25 -21.515625 C 32.351562 -22.648438 30.75 -23.21875 28.4375 -23.21875 L 16.5 -23.21875 L 16.5 -6.171875 C 16.5 -3.867188 17.398438 -2.71875 19.203125 -2.71875 L 31.15625 -2.71875 C 33.644531 -2.71875 35.835938 -3.472656 37.734375 -4.984375 C 39.640625 -6.503906 41.179688 -8.710938 42.359375 -11.609375 L 43.78125 -11.609375 L 39.984375 0 L 2.4375 0 L 2.4375 -1.21875 C 4.789062 -1.21875 6.5 -1.613281 7.5625 -2.40625 C 8.625 -3.195312 9.15625 -4.679688 9.15625 -6.859375 L 9.15625 -40.25 C 9.15625 -42.0625 8.625 -43.375 7.5625 -44.1875 C 6.5 -45 4.789062 -45.40625 2.4375 -45.40625 L 2.4375 -46.625 L 39.4375 -46.625 Z M 39.984375 -36.3125 "/></g></g></g><g fill="#000000" fill-opacity="1"><g transform="translate(56.28413, 209.536712)"><g><path d="M 15 -30.265625 C 13.820312 -30.179688 12.960938 -29.921875 12.421875 -29.484375 C 11.878906 -29.054688 11.609375 -28.414062 11.609375 -27.5625 C 11.609375 -26.832031 11.71875 -26.113281 11.9375 -25.40625 C 12.164062 -24.707031 12.394531 -24.097656 12.625 -23.578125 C 12.851562 -23.066406 12.988281 -22.742188 13.03125 -22.609375 L 19.140625 -7.671875 L 26.40625 -25.59375 C 26.851562 -26.71875 27.078125 -27.550781 27.078125 -28.09375 C 27.078125 -28.863281 26.816406 -29.394531 26.296875 -29.6875 C 25.773438 -29.988281 24.882812 -30.179688 23.625 -30.265625 L 23.625 -31.5 L 33.0625 -31.5 L 33.0625 -30.265625 C 31.925781 -30.222656 31.085938 -29.816406 30.546875 -29.046875 C 30.003906 -28.273438 29.4375 -27.125 28.84375 -25.59375 L 18.265625 0.875 L 16.90625 0.875 L 8.890625 -18.796875 C 7.484375 -22.234375 6.414062 -24.675781 5.6875 -26.125 C 4.96875 -27.570312 4.257812 -28.601562 3.5625 -29.21875 C 2.863281 -29.832031 1.96875 -30.179688 0.875 -30.265625 L 0.875 -31.5 L 15 -31.5 Z M 15 -30.265625 "/></g></g></g><g fill="#000000" fill-opacity="1"><g transform="translate(157.532039, 205.753153)"><g><path d="M 15.953125 -32.234375 C 19.484375 -32.234375 22.34375 -31.054688 24.53125 -28.703125 C 26.726562 -26.359375 27.828125 -23.304688 27.828125 -19.546875 L 6.515625 -19.546875 L 6.515625 -18.671875 C 6.515625 -16.265625 6.988281 -13.960938 7.9375 -11.765625 C 8.882812 -9.578125 10.21875 -7.800781 11.9375 -6.4375 C 13.664062 -5.082031 15.613281 -4.40625 17.78125 -4.40625 C 22.082031 -4.40625 25.09375 -6.804688 26.8125 -11.609375 L 27.828125 -11.0625 C 27.109375 -7.351562 25.613281 -4.421875 23.34375 -2.265625 C 21.082031 -0.117188 18.367188 0.953125 15.203125 0.953125 C 12.847656 0.953125 10.664062 0.34375 8.65625 -0.875 C 6.644531 -2.101562 5.015625 -3.9375 3.765625 -6.375 C 2.523438 -8.820312 1.90625 -11.785156 1.90625 -15.265625 C 1.90625 -18.617188 2.492188 -21.582031 3.671875 -24.15625 C 4.847656 -26.738281 6.5 -28.726562 8.625 -30.125 C 10.75 -31.53125 13.191406 -32.234375 15.953125 -32.234375 Z M 14.046875 -29.859375 C 12.148438 -29.859375 10.507812 -29.113281 9.125 -27.625 C 7.75 -26.132812 6.925781 -24.144531 6.65625 -21.65625 L 20.84375 -21.65625 C 20.75 -24.09375 20.125 -26.066406 18.96875 -27.578125 C 17.8125 -29.097656 16.171875 -29.859375 14.046875 -29.859375 Z M 14.046875 -29.859375 "/></g></g></g><g fill="#000000" fill-opacity="1"><g transform="translate(187.260835, 205.753153)"><g><path d="M 12.5625 -25.859375 L 12.6875 -25.859375 C 13.863281 -27.941406 15.140625 -29.523438 16.515625 -30.609375 C 17.898438 -31.691406 19.453125 -32.234375 21.171875 -32.234375 C 22.398438 -32.234375 23.394531 -31.859375 24.15625 -31.109375 C 24.925781 -30.367188 25.3125 -29.457031 25.3125 -28.375 C 25.3125 -27.507812 25.003906 -26.78125 24.390625 -26.1875 C 23.785156 -25.601562 23.097656 -25.3125 22.328125 -25.3125 C 21.691406 -25.3125 21.171875 -25.4375 20.765625 -25.6875 C 20.359375 -25.9375 19.953125 -26.265625 19.546875 -26.671875 C 19.453125 -26.722656 19.289062 -26.859375 19.0625 -27.078125 C 18.84375 -27.304688 18.609375 -27.476562 18.359375 -27.59375 C 18.109375 -27.707031 17.847656 -27.765625 17.578125 -27.765625 C 16.535156 -27.765625 15.640625 -27.34375 14.890625 -26.5 C 14.148438 -25.664062 13.375 -24.523438 12.5625 -23.078125 L 12.5625 -7.1875 C 12.5625 -5.425781 12.75 -4.113281 13.125 -3.25 C 13.507812 -2.394531 14.109375 -1.84375 14.921875 -1.59375 C 15.742188 -1.34375 16.945312 -1.21875 18.53125 -1.21875 L 18.53125 0 L 1.828125 0 L 1.828125 -1.21875 L 2.171875 -1.21875 C 3.847656 -1.21875 5.066406 -1.625 5.828125 -2.4375 C 6.597656 -3.257812 6.984375 -4.753906 6.984375 -6.921875 L 6.984375 -22.40625 C 6.984375 -24.53125 6.757812 -25.921875 6.3125 -26.578125 C 5.863281 -27.234375 5.070312 -27.5625 3.9375 -27.5625 C 3.257812 -27.5625 2.691406 -27.425781 2.234375 -27.15625 L 1.828125 -28.296875 L 11.328125 -32.234375 L 12.5625 -32.234375 Z M 12.5625 -25.859375 "/></g></g></g><g fill="#000000" fill-opacity="1"><g transform="translate(288.931898, 208.786712)"><g><path d="M 19.34375 -32.234375 C 22.007812 -32.234375 24.507812 -31.519531 26.84375 -30.09375 C 29.175781 -28.675781 31.03125 -26.78125 32.40625 -24.40625 C 33.789062 -22.03125 34.484375 -19.484375 34.484375 -16.765625 C 34.484375 -13.597656 33.734375 -10.65625 32.234375 -7.9375 C 30.742188 -5.226562 28.742188 -3.066406 26.234375 -1.453125 C 23.722656 0.148438 21.039062 0.953125 18.1875 0.953125 C 15.476562 0.953125 12.957031 0.238281 10.625 -1.1875 C 8.289062 -2.613281 6.441406 -4.535156 5.078125 -6.953125 C 3.722656 -9.378906 3.046875 -12.015625 3.046875 -14.859375 C 3.046875 -17.941406 3.789062 -20.816406 5.28125 -23.484375 C 6.78125 -26.148438 8.785156 -28.273438 11.296875 -29.859375 C 13.804688 -31.441406 16.488281 -32.234375 19.34375 -32.234375 Z M 9.15625 -17.578125 C 9.15625 -14.910156 9.570312 -12.34375 10.40625 -9.875 C 11.25 -7.40625 12.460938 -5.378906 14.046875 -3.796875 C 15.628906 -2.210938 17.53125 -1.421875 19.75 -1.421875 C 22.332031 -1.421875 24.414062 -2.5625 26 -4.84375 C 27.582031 -7.132812 28.375 -10.160156 28.375 -13.921875 C 28.375 -16.898438 27.921875 -19.597656 27.015625 -22.015625 C 26.109375 -24.441406 24.835938 -26.351562 23.203125 -27.75 C 21.578125 -29.15625 19.722656 -29.859375 17.640625 -29.859375 C 15.066406 -29.859375 13.007812 -28.75 11.46875 -26.53125 C 9.925781 -24.320312 9.15625 -21.335938 9.15625 -17.578125 Z M 9.15625 -17.578125 "/></g></g></g><g fill="#000000" fill-opacity="1"><g transform="translate(326.398334, 208.786712)"><g><path d="M 19.203125 -48.671875 C 20.703125 -48.671875 22.117188 -48.410156 23.453125 -47.890625 C 24.785156 -47.367188 25.847656 -46.664062 26.640625 -45.78125 C 27.429688 -44.894531 27.828125 -43.976562 27.828125 -43.03125 C 27.828125 -42.351562 27.554688 -41.726562 27.015625 -41.15625 C 26.472656 -40.59375 25.835938 -40.3125 25.109375 -40.3125 C 24.335938 -40.3125 23.710938 -40.535156 23.234375 -40.984375 C 22.765625 -41.441406 22.210938 -42.125 21.578125 -43.03125 C 20.859375 -44.113281 20.171875 -44.925781 19.515625 -45.46875 C 18.859375 -46.019531 17.960938 -46.296875 16.828125 -46.296875 C 15.515625 -46.296875 14.441406 -45.796875 13.609375 -44.796875 C 12.773438 -43.796875 12.359375 -41.941406 12.359375 -39.234375 L 12.359375 -31.5 L 18.734375 -31.5 L 18.734375 -29.390625 L 12.359375 -29.390625 L 12.359375 -7.1875 C 12.359375 -5.425781 12.535156 -4.125 12.890625 -3.28125 C 13.253906 -2.445312 13.820312 -1.894531 14.59375 -1.625 C 15.363281 -1.351562 16.472656 -1.21875 17.921875 -1.21875 L 17.921875 0 L 1.625 0 L 1.625 -1.21875 C 2.9375 -1.21875 3.941406 -1.363281 4.640625 -1.65625 C 5.347656 -1.957031 5.878906 -2.523438 6.234375 -3.359375 C 6.597656 -4.191406 6.78125 -5.46875 6.78125 -7.1875 L 6.78125 -29.390625 L 2.375 -29.390625 L 2.375 -31.5 L 6.78125 -31.5 L 6.78125 -34.75 C 6.78125 -37.550781 7.378906 -40.003906 8.578125 -42.109375 C 9.785156 -44.210938 11.335938 -45.832031 13.234375 -46.96875 C 15.140625 -48.101562 17.128906 -48.671875 19.203125 -48.671875 Z M 19.203125 -48.671875 "/></g></g></g><g fill="#000000" fill-opacity="1"><g transform="translate(21.606319, 341.739175)"><g><path d="M 15.140625 -30.265625 C 13.828125 -30.265625 12.882812 -30.09375 12.3125 -29.75 C 11.75 -29.414062 11.46875 -28.753906 11.46875 -27.765625 C 11.46875 -26.898438 11.613281 -26.148438 11.90625 -25.515625 C 12.207031 -24.890625 12.378906 -24.53125 12.421875 -24.4375 L 19.8125 -7.875 L 26.546875 -26 C 26.898438 -27.082031 27.078125 -27.828125 27.078125 -28.234375 C 27.078125 -28.960938 26.828125 -29.460938 26.328125 -29.734375 C 25.835938 -30.003906 25.023438 -30.179688 23.890625 -30.265625 L 23.890625 -31.5 L 32.921875 -31.5 L 32.921875 -30.265625 C 32.109375 -30.179688 31.40625 -29.8125 30.8125 -29.15625 C 30.226562 -28.5 29.707031 -27.554688 29.25 -26.328125 L 18.671875 2.171875 C 17.398438 5.472656 15.90625 8.332031 14.1875 10.75 C 12.46875 13.175781 10.066406 14.390625 6.984375 14.390625 C 5.628906 14.390625 4.53125 14.035156 3.6875 13.328125 C 2.851562 12.628906 2.4375 11.738281 2.4375 10.65625 C 2.4375 9.75 2.765625 9 3.421875 8.40625 C 4.078125 7.820312 4.925781 7.53125 5.96875 7.53125 C 6.601562 7.53125 7.191406 7.644531 7.734375 7.875 C 8.273438 8.101562 8.59375 8.238281 8.6875 8.28125 C 9.59375 8.644531 10.25 8.828125 10.65625 8.828125 C 11.875 8.828125 12.96875 8.035156 13.9375 6.453125 C 14.914062 4.867188 16.015625 2.492188 17.234375 -0.671875 L 7.46875 -22.46875 C 6.519531 -24.550781 5.796875 -26.054688 5.296875 -26.984375 C 4.796875 -27.910156 4.21875 -28.664062 3.5625 -29.25 C 2.90625 -29.84375 2.082031 -30.179688 1.09375 -30.265625 L 1.09375 -31.5 L 15.140625 -31.5 Z M 15.140625 -30.265625 "/></g></g></g><g fill="#000000" fill-opacity="1"><g transform="translate(55.543298, 341.739175)"><g><path d="M 11.265625 -41.46875 L 12.359375 -41.46875 L 12.359375 -31.5 L 19.484375 -31.5 L 19.484375 -29.390625 L 12.359375 -29.390625 L 12.359375 -7.53125 C 12.359375 -6.351562 12.695312 -5.300781 13.375 -4.375 C 14.050781 -3.445312 15 -2.984375 16.21875 -2.984375 C 17.03125 -2.984375 17.753906 -3.175781 18.390625 -3.5625 C 19.023438 -3.945312 19.707031 -4.613281 20.4375 -5.5625 L 21.78125 -5.5625 C 20.601562 -3.394531 19.335938 -1.765625 17.984375 -0.671875 C 16.628906 0.410156 15.046875 0.953125 13.234375 0.953125 C 11.242188 0.953125 9.671875 0.21875 8.515625 -1.25 C 7.359375 -2.726562 6.78125 -4.734375 6.78125 -7.265625 L 6.78125 -29.390625 L 1.96875 -29.390625 L 1.96875 -30.75 C 4.28125 -31.695312 6.226562 -33.085938 7.8125 -34.921875 C 9.394531 -36.753906 10.546875 -38.9375 11.265625 -41.46875 Z M 11.265625 -41.46875 "/></g></g></g><g fill="#000000" fill-opacity="1"><g transform="translate(158.282039, 347.410523)"><g><path d="M 12.21875 -25.59375 L 12.359375 -25.59375 C 13.847656 -27.625 15.539062 -29.238281 17.4375 -30.4375 C 19.34375 -31.632812 21.222656 -32.234375 23.078125 -32.234375 C 25.742188 -32.234375 27.765625 -31.226562 29.140625 -29.21875 C 30.523438 -27.207031 31.21875 -24.726562 31.21875 -21.78125 L 31.21875 -7.265625 C 31.21875 -5.546875 31.398438 -4.253906 31.765625 -3.390625 C 32.128906 -2.535156 32.660156 -1.957031 33.359375 -1.65625 C 34.054688 -1.363281 35.0625 -1.21875 36.375 -1.21875 L 36.375 0 L 20.640625 0 L 20.640625 -1.21875 C 21.859375 -1.21875 22.816406 -1.351562 23.515625 -1.625 C 24.222656 -1.894531 24.753906 -2.457031 25.109375 -3.3125 C 25.472656 -4.175781 25.65625 -5.46875 25.65625 -7.1875 L 25.65625 -22.671875 C 25.65625 -24.117188 25.191406 -25.382812 24.265625 -26.46875 C 23.335938 -27.550781 22.015625 -28.09375 20.296875 -28.09375 C 18.890625 -28.09375 17.5625 -27.765625 16.3125 -27.109375 C 15.070312 -26.453125 13.707031 -25.378906 12.21875 -23.890625 L 12.21875 -7.1875 C 12.21875 -5.425781 12.382812 -4.125 12.71875 -3.28125 C 13.0625 -2.445312 13.601562 -1.894531 14.34375 -1.625 C 15.09375 -1.351562 16.191406 -1.21875 17.640625 -1.21875 L 17.640625 0 L 1.703125 0 L 1.703125 -1.21875 C 2.921875 -1.21875 3.878906 -1.363281 4.578125 -1.65625 C 5.285156 -1.957031 5.804688 -2.546875 6.140625 -3.421875 C 6.484375 -4.304688 6.65625 -5.585938 6.65625 -7.265625 L 6.65625 -39.15625 C 6.65625 -41.0625 6.359375 -42.316406 5.765625 -42.921875 C 5.179688 -43.535156 4.4375 -43.84375 3.53125 -43.84375 C 2.894531 -43.84375 2.285156 -43.707031 1.703125 -43.4375 L 1.296875 -44.59375 L 11 -48.671875 L 12.21875 -48.671875 Z M 12.21875 -25.59375 "/></g></g></g><g fill="#000000" fill-opacity="1"><g transform="translate(195.748475, 347.410523)"><g><path d="M 9.234375 -48.875 C 10.222656 -48.875 11.054688 -48.53125 11.734375 -47.84375 C 12.421875 -47.164062 12.765625 -46.351562 12.765625 -45.40625 C 12.765625 -44.414062 12.421875 -43.578125 11.734375 -42.890625 C 11.054688 -42.210938 10.222656 -41.875 9.234375 -41.875 C 8.285156 -41.875 7.46875 -42.210938 6.78125 -42.890625 C 6.101562 -43.578125 5.765625 -44.414062 5.765625 -45.40625 C 5.765625 -46.351562 6.101562 -47.164062 6.78125 -47.84375 C 7.46875 -48.53125 8.285156 -48.875 9.234375 -48.875 Z M 12.21875 -7.0625 C 12.21875 -4.84375 12.578125 -3.328125 13.296875 -2.515625 C 14.023438 -1.703125 15.203125 -1.269531 16.828125 -1.21875 L 16.828125 0 L 1.5625 0 L 1.5625 -1.21875 C 3.414062 -1.21875 4.726562 -1.644531 5.5 -2.5 C 6.269531 -3.363281 6.65625 -4.925781 6.65625 -7.1875 L 6.65625 -23.625 C 6.65625 -24.84375 6.378906 -25.835938 5.828125 -26.609375 C 5.285156 -27.378906 4.453125 -27.765625 3.328125 -27.765625 C 2.828125 -27.765625 2.375 -27.648438 1.96875 -27.421875 L 1.5625 -28.640625 L 11 -32.234375 L 12.21875 -32.234375 Z M 12.21875 -7.0625 "/></g></g></g><g fill="#000000" fill-opacity="1"><g transform="translate(287.017787, 341.739175)"><g><path d="M 12.15625 -25.59375 C 14.5 -28.125 16.414062 -29.863281 17.90625 -30.8125 C 19.40625 -31.757812 21.0625 -32.234375 22.875 -32.234375 C 24.863281 -32.234375 26.46875 -31.703125 27.6875 -30.640625 C 28.914062 -29.578125 29.800781 -28.273438 30.34375 -26.734375 C 30.882812 -25.203125 31.15625 -23.6875 31.15625 -22.1875 L 31.15625 -7.1875 C 31.15625 -4.882812 31.515625 -3.335938 32.234375 -2.546875 C 32.960938 -1.753906 34.207031 -1.3125 35.96875 -1.21875 L 35.96875 0 L 20.09375 0 L 20.09375 -1.21875 C 21.539062 -1.21875 22.648438 -1.375 23.421875 -1.6875 C 24.191406 -2.007812 24.742188 -2.585938 25.078125 -3.421875 C 25.421875 -4.265625 25.59375 -5.519531 25.59375 -7.1875 L 25.59375 -22.46875 C 25.59375 -23.914062 25.113281 -25.238281 24.15625 -26.4375 C 23.207031 -27.632812 21.898438 -28.234375 20.234375 -28.234375 C 18.828125 -28.234375 17.488281 -27.859375 16.21875 -27.109375 C 14.957031 -26.367188 13.601562 -25.226562 12.15625 -23.6875 L 12.15625 -7.1875 C 12.15625 -4.84375 12.535156 -3.273438 13.296875 -2.484375 C 14.066406 -1.691406 15.40625 -1.269531 17.3125 -1.21875 L 17.3125 0 L 1.703125 0 L 1.703125 -1.21875 C 3.097656 -1.351562 4.132812 -1.601562 4.8125 -1.96875 C 5.5 -2.332031 5.960938 -2.894531 6.203125 -3.65625 C 6.453125 -4.425781 6.578125 -5.535156 6.578125 -6.984375 L 6.578125 -23.890625 C 6.578125 -24.929688 6.347656 -25.835938 5.890625 -26.609375 C 5.441406 -27.378906 4.722656 -27.765625 3.734375 -27.765625 C 3.273438 -27.765625 2.851562 -27.679688 2.46875 -27.515625 C 2.09375 -27.359375 1.835938 -27.257812 1.703125 -27.21875 L 1.21875 -28.5 L 11 -32.234375 L 12.15625 -32.234375 Z M 12.15625 -25.59375 "/></g></g></g><g fill="#000000" fill-opacity="1"><g transform="translate(324.484223, 341.739175)"><g><path d="M 17.234375 -32.234375 C 19.773438 -32.234375 22.109375 -31.578125 24.234375 -30.265625 L 31.625 -30.265625 C 32.257812 -30.265625 32.632812 -30.175781 32.75 -30 C 32.863281 -29.820312 32.921875 -29.347656 32.921875 -28.578125 C 32.921875 -27.898438 32.875 -27.476562 32.78125 -27.3125 C 32.6875 -27.15625 32.414062 -27.078125 31.96875 -27.078125 L 26.8125 -27.078125 C 27.445312 -26.085938 27.898438 -25.160156 28.171875 -24.296875 C 28.441406 -23.441406 28.578125 -22.445312 28.578125 -21.3125 C 28.578125 -19.226562 28.078125 -17.359375 27.078125 -15.703125 C 26.085938 -14.054688 24.695312 -12.769531 22.90625 -11.84375 C 21.125 -10.914062 19.097656 -10.453125 16.828125 -10.453125 C 15.378906 -10.453125 13.890625 -10.675781 12.359375 -11.125 C 10.546875 -9.5 9.640625 -8.144531 9.640625 -7.0625 C 9.640625 -6.46875 9.96875 -5.988281 10.625 -5.625 C 11.28125 -5.269531 12.648438 -5.09375 14.734375 -5.09375 L 22.46875 -5.09375 C 25.1875 -5.09375 27.5625 -4.503906 29.59375 -3.328125 C 31.625 -2.148438 32.640625 -0.40625 32.640625 1.90625 C 32.640625 4.070312 31.828125 6.113281 30.203125 8.03125 C 28.578125 9.957031 26.414062 11.5 23.71875 12.65625 C 21.03125 13.8125 18.144531 14.390625 15.0625 14.390625 C 12.988281 14.390625 10.941406 14.082031 8.921875 13.46875 C 6.910156 12.863281 5.28125 12.0625 4.03125 11.0625 C 2.789062 10.070312 2.171875 9.054688 2.171875 8.015625 C 2.171875 7.148438 2.578125 6.117188 3.390625 4.921875 C 4.203125 3.722656 5.945312 1.789062 8.625 -0.875 C 6.351562 -1.5625 5.21875 -2.671875 5.21875 -4.203125 C 5.21875 -5.429688 5.691406 -6.664062 6.640625 -7.90625 C 7.597656 -9.15625 8.9375 -10.457031 10.65625 -11.8125 C 8.84375 -12.757812 7.4375 -14.054688 6.4375 -15.703125 C 5.445312 -17.359375 4.953125 -19.160156 4.953125 -21.109375 C 4.953125 -23.191406 5.484375 -25.082031 6.546875 -26.78125 C 7.609375 -28.476562 9.078125 -29.8125 10.953125 -30.78125 C 12.835938 -31.75 14.929688 -32.234375 17.234375 -32.234375 Z M 10.71875 -23.953125 C 10.71875 -22.285156 10.941406 -20.546875 11.390625 -18.734375 C 11.847656 -16.921875 12.617188 -15.367188 13.703125 -14.078125 C 14.796875 -12.796875 16.175781 -12.15625 17.84375 -12.15625 C 19.34375 -12.15625 20.546875 -12.863281 21.453125 -14.28125 C 22.359375 -15.707031 22.8125 -17.53125 22.8125 -19.75 C 22.8125 -21.101562 22.5625 -22.609375 22.0625 -24.265625 C 21.5625 -25.921875 20.789062 -27.347656 19.75 -28.546875 C 18.707031 -29.742188 17.375 -30.34375 15.75 -30.34375 C 14.382812 -30.34375 13.203125 -29.765625 12.203125 -28.609375 C 11.210938 -27.453125 10.71875 -25.898438 10.71875 -23.953125 Z M 21.046875 0.0625 L 18.53125 0.0625 C 16.488281 0.0625 14.820312 0.03125 13.53125 -0.03125 C 12.25 -0.101562 11.132812 -0.273438 10.1875 -0.546875 C 9.144531 0.628906 8.375 1.679688 7.875 2.609375 C 7.375 3.535156 7.125 4.429688 7.125 5.296875 C 7.125 6.921875 8.242188 8.160156 10.484375 9.015625 C 12.722656 9.878906 15.425781 10.3125 18.59375 10.3125 C 20.851562 10.3125 22.890625 10.015625 24.703125 9.421875 C 26.515625 8.835938 27.941406 8.023438 28.984375 6.984375 C 30.023438 5.953125 30.546875 4.800781 30.546875 3.53125 C 30.546875 2.082031 29.785156 1.15625 28.265625 0.75 C 26.753906 0.34375 24.347656 0.113281 21.046875 0.0625 Z M 21.046875 0.0625 "/></g></g></g></svg>